<?xml version="1.0" encoding="utf-8"?>
<!-- Generator: Adobe Illustrator 17.1.0, SVG Export Plug-In . SVG Version: 6.00 Build 0)  -->
<!DOCTYPE svg PUBLIC "-//W3C//DTD SVG 1.0//EN" "http://www.w3.org/TR/2001/REC-SVG-20010904/DTD/svg10.dtd">
<svg version="1.0" id="レイヤー_1" xmlns="http://www.w3.org/2000/svg" xmlns:xlink="http://www.w3.org/1999/xlink" x="0px"
	 y="0px" viewBox="0 0 16 16" enable-background="new 0 0 16 16" xml:space="preserve">
<g>
	<g>
		<path fill="#0049C9" d="M7.603,0.12C7.296,0.811,6.934,1.376,6.53,1.908C5.925,2.705,5.211,3.425,4.491,4.326
			c-0.719,0.9-1.43,1.984-1.979,3.467C2.27,8.444,2.156,9.128,2.156,9.81c0.002,1.411,0.481,2.815,1.369,3.933
			c0.445,0.558,0.994,1.043,1.637,1.41c0.643,0.367,1.38,0.614,2.185,0.698C7.528,15.87,7.709,15.88,7.89,15.88
			c1.347-0.001,2.668-0.512,3.672-1.432c0.501-0.46,0.922-1.026,1.215-1.68c0.294-0.653,0.46-1.394,0.459-2.191l0-0.021v-0.001
			c-0.002-0.364-0.091-0.703-0.22-1.026c-0.228-0.565-0.583-1.096-0.983-1.604c-0.601-0.759-1.31-1.459-1.874-1.978
			C9.596,5.429,9.178,5.094,9.168,5.086L8.622,4.65L8.13,5.147C8.125,5.152,7.892,5.387,7.629,5.68
			C7.497,5.827,7.357,5.988,7.231,6.148c-0.063,0.081-0.123,0.161-0.18,0.244C6.995,6.476,6.943,6.56,6.893,6.668l1.413,0.65
			L8.205,7.272l0.099,0.049l0.001-0.003L8.205,7.272l0.099,0.049l0.002-0.005c0.016-0.031,0.093-0.142,0.188-0.258
			C8.638,6.88,8.828,6.67,8.977,6.51c0.075-0.08,0.14-0.148,0.187-0.196C9.187,6.29,9.205,6.271,9.217,6.259l0.014-0.014
			l0.004-0.004L8.683,5.694L8.197,6.301l0.001,0.001C8.24,6.335,9.162,7.08,10.049,8.014c0.443,0.465,0.876,0.979,1.181,1.451
			c0.152,0.235,0.272,0.459,0.347,0.651c0.076,0.192,0.106,0.348,0.105,0.446V10.56l0,0.017c0,0.584-0.119,1.099-0.323,1.553
			c-0.306,0.68-0.809,1.227-1.423,1.607c-0.613,0.38-1.334,0.588-2.045,0.587c-0.127,0-0.255-0.007-0.381-0.02
			c-0.592-0.062-1.115-0.239-1.577-0.502c-0.691-0.394-1.247-0.989-1.631-1.692c-0.384-0.702-0.591-1.51-0.591-2.3
			c0-0.509,0.085-1.011,0.258-1.476c0.324-0.873,0.699-1.567,1.105-2.177c0.608-0.914,1.297-1.64,1.998-2.455
			c0.699-0.812,1.406-1.72,1.952-2.95L7.603,0.12L7.603,0.12z"/>
	</g>
	<path fill="#0049C9" d="M9.403,9.612c0.731,0.731,0.731,1.915,0,2.646c-0.731,0.731-1.915,0.731-2.646,0
		c-0.731-0.731-0.981-3.627-0.981-3.627S8.672,8.881,9.403,9.612z"/>
</g>
<g>
</g>
<g>
</g>
<g>
</g>
<g>
</g>
<g>
</g>
<g>
</g>
<g>
</g>
<g>
</g>
<g>
</g>
<g>
</g>
<g>
</g>
<g>
</g>
<g>
</g>
<g>
</g>
<g>
</g>
</svg>
