<?xml version="1.0" encoding="utf-8"?>
<!-- Generator: Adobe Illustrator 17.1.0, SVG Export Plug-In . SVG Version: 6.00 Build 0)  -->
<!DOCTYPE svg PUBLIC "-//W3C//DTD SVG 1.0//EN" "http://www.w3.org/TR/2001/REC-SVG-20010904/DTD/svg10.dtd">
<svg version="1.0" id="Layer" xmlns="http://www.w3.org/2000/svg" xmlns:xlink="http://www.w3.org/1999/xlink" x="0px" y="0px"
	 viewBox="0 0 40 40" enable-background="new 0 0 40 40" xml:space="preserve">
<g>
	<g>
		<path fill="#DDDDDD" d="M19.778,1.262c-0.731,1.643-1.59,2.986-2.552,4.251c-1.438,1.895-3.136,3.608-4.849,5.75
			c-1.71,2.139-3.401,4.717-4.707,8.244c-0.574,1.548-0.845,3.176-0.845,4.798c0.004,3.355,1.144,6.694,3.256,9.352
			c1.057,1.327,2.363,2.481,3.893,3.354c1.529,0.873,3.282,1.46,5.196,1.66c0.43,0.045,0.862,0.067,1.292,0.067
			c3.203-0.004,6.345-1.216,8.732-3.405c1.192-1.095,2.191-2.44,2.89-3.994c0.699-1.553,1.093-3.315,1.092-5.21l0-0.049v-0.003
			c-0.006-0.865-0.217-1.671-0.523-2.44c-0.541-1.342-1.386-2.605-2.337-3.815c-1.428-1.806-3.115-3.469-4.456-4.703
			c-1.341-1.232-2.335-2.028-2.359-2.047l-1.299-1.038l-1.17,1.181c-0.013,0.013-0.567,0.573-1.193,1.269
			c-0.314,0.349-0.644,0.731-0.945,1.113c-0.15,0.192-0.293,0.383-0.427,0.58c-0.134,0.2-0.259,0.399-0.379,0.656l3.36,1.545
			l-0.239-0.11l0.236,0.117l0.003-0.007l-0.239-0.11l0.236,0.117l0.006-0.011c0.037-0.073,0.22-0.337,0.447-0.614
			c0.343-0.425,0.793-0.924,1.149-1.304c0.178-0.191,0.334-0.353,0.444-0.467c0.055-0.057,0.098-0.101,0.128-0.131l0.033-0.033
			l0.009-0.009l-1.314-1.301l-1.155,1.444l0.003,0.002c0.098,0.078,2.292,1.851,4.401,4.071c1.054,1.106,2.084,2.328,2.808,3.45
			c0.362,0.559,0.646,1.092,0.825,1.547c0.182,0.456,0.251,0.828,0.25,1.059v-0.003l0,0.041c-0.001,1.388-0.282,2.614-0.767,3.694
			c-0.727,1.617-1.925,2.917-3.385,3.822c-1.458,0.904-3.172,1.397-4.864,1.396c-0.303,0-0.605-0.016-0.906-0.047
			c-1.407-0.148-2.651-0.569-3.75-1.194c-1.644-0.937-2.966-2.352-3.879-4.024c-0.913-1.67-1.406-3.591-1.404-5.47
			c0-1.211,0.202-2.403,0.614-3.511c0.771-2.075,1.662-3.726,2.627-5.176c1.446-2.173,3.084-3.901,4.752-5.838
			c1.662-1.932,3.343-4.089,4.642-7.016L19.778,1.262L19.778,1.262z"/>
	</g>
	<path fill="#DDDDDD" d="M24.058,23.833c1.738,1.738,1.738,4.555,0,6.293c-1.738,1.738-4.555,1.738-6.293,0
		c-1.738-1.738-2.333-8.626-2.333-8.626S22.32,22.095,24.058,23.833z"/>
</g>
<g>
</g>
<g>
</g>
<g>
</g>
<g>
</g>
<g>
</g>
<g>
</g>
<g>
</g>
<g>
</g>
<g>
</g>
<g>
</g>
<g>
</g>
<g>
</g>
<g>
</g>
<g>
</g>
<g>
</g>
</svg>
