<?xml version="1.0" encoding="utf-8"?>
<!-- Generator: Adobe Illustrator 17.1.0, SVG Export Plug-In . SVG Version: 6.00 Build 0)  -->
<!DOCTYPE svg PUBLIC "-//W3C//DTD SVG 1.0//EN" "http://www.w3.org/TR/2001/REC-SVG-20010904/DTD/svg10.dtd">
<svg version="1.0" id="レイヤー_1" xmlns="http://www.w3.org/2000/svg" xmlns:xlink="http://www.w3.org/1999/xlink" x="0px"
	 y="0px" viewBox="0 0 200 60" enable-background="new 0 0 200 60" xml:space="preserve">
<g>
	<g>
		<path fill="#0049C9" d="M322.618,264.53c-1.384,3.11-3.011,5.653-4.831,8.047c-2.721,3.587-5.936,6.829-9.18,10.884
			c-3.238,4.05-6.439,8.929-8.91,15.606c-1.087,2.93-1.599,6.012-1.599,9.082c0.007,6.351,2.165,12.672,6.163,17.703
			c2.001,2.512,4.473,4.697,7.369,6.349c2.894,1.652,6.212,2.763,9.836,3.142c0.815,0.085,1.631,0.127,2.445,0.127
			c6.063-0.007,12.011-2.303,16.529-6.446c2.256-2.073,4.148-4.619,5.471-7.561c1.324-2.94,2.069-6.275,2.068-9.863l0-0.093v-0.006
			c-0.01-1.637-0.411-3.163-0.99-4.618c-1.024-2.541-2.623-4.932-4.423-7.221c-2.703-3.418-5.896-6.567-8.436-8.903
			c-2.538-2.332-4.421-3.838-4.466-3.874l-2.458-1.965l-2.214,2.236c-0.024,0.024-1.074,1.084-2.258,2.402
			c-0.594,0.661-1.22,1.384-1.788,2.106c-0.285,0.363-0.555,0.725-0.808,1.099c-0.253,0.378-0.489,0.754-0.716,1.242l6.36,2.925
			l-0.453-0.208l0.446,0.222l0.007-0.014l-0.453-0.208l0.446,0.222l0.011-0.02c0.071-0.138,0.417-0.638,0.846-1.162
			c0.649-0.804,1.501-1.748,2.174-2.468c0.337-0.361,0.632-0.668,0.84-0.883c0.104-0.107,0.186-0.192,0.241-0.248l0.062-0.063
			l0.017-0.018l-2.487-2.463l-2.186,2.734l0.006,0.005c0.186,0.147,4.338,3.504,8.331,7.706c1.995,2.094,3.946,4.407,5.315,6.531
			c0.685,1.058,1.222,2.067,1.561,2.929c0.344,0.863,0.476,1.567,0.473,2.005v-0.006l0,0.078c-0.002,2.628-0.535,4.948-1.452,6.992
			c-1.376,3.061-3.643,5.522-6.407,7.235c-2.76,1.712-6.004,2.645-9.208,2.643c-0.574,0-1.146-0.03-1.715-0.089
			c-2.664-0.281-5.019-1.077-7.098-2.261c-3.113-1.774-5.614-4.451-7.342-7.617c-1.728-3.161-2.661-6.797-2.658-10.354
			c0-2.293,0.383-4.549,1.161-6.646c1.459-3.928,3.146-7.053,4.973-9.798c2.737-4.113,5.837-7.384,8.995-11.051
			c3.145-3.658,6.328-7.741,8.787-13.28L322.618,264.53L322.618,264.53z"/>
	</g>
	<g>
		<path fill="#333333" d="M386.381,293.338h-14.597v8.879h13.078v2.959h-13.078v12.958h-3.16v-27.916h17.757V293.338z"/>
		<path fill="#333333" d="M395.664,318.095c-3.359-0.08-5.039-1.52-5.039-4.799v-23.077h2.88v23.077
			c0,1.119,0.479,2.079,2.119,2.199L395.664,318.095z"/>
		<path fill="#333333" d="M414.422,317.814l-2.6,0.641l-0.521-1.96c-1.8,1.479-3.599,2.079-5.639,2.079
			c-3.8,0-6.959-2.039-6.959-5.998c0-3.52,2.56-5.64,6.719-5.76c0.601-0.04,3,0,3,0c0.88-0.04,1.8-0.12,2.479-0.88v-1.6
			c0-2.039-2.12-3.199-3.96-3.199c-1.919,0-3.879,0.68-4.719,2.6l-2.6-0.88c1.2-3.16,3.879-4.44,7.399-4.44
			c3.279,0,6.719,2.239,6.719,5.679v10.799L414.422,317.814z M410.902,308.416c-1.08,0.601-1.52,0.641-2.32,0.641h-2.959
			c-2.08,0.04-4.159,1.039-4.159,3.52c0,2.399,2.279,3.438,4.279,3.438c2.039,0,3.6-0.72,5.159-2.159V308.416z"/>
		<path fill="#333333" d="M425.583,311.696c-0.76,0-1.359-0.08-2.199-0.28c-0.96,0.6-1.84,1.52-1.84,2.68
			c0,0.96,0.72,1.119,1.399,1.119c2.279,0,4.439-1.039,6.679-1.039c2.76,0,4.919,1.72,4.919,4.438c0,4.52-4.719,7.239-8.998,7.239
			c-3.6,0-7.919-1.52-7.919-5.479c0-0.479,0.08-1.039,0.24-1.52l2.68,0.84c-0.04,0.2-0.08,0.4-0.08,0.64
			c0,1.96,2.92,2.84,4.839,2.84c2.64,0,6.359-1.479,6.359-4.439c0-1.439-1.32-2.079-2.479-2.079c-2.04,0-3.92,0.84-5.919,0.84
			c-2.12,0-4.199-0.92-4.199-3.08c0-1.359,0.72-2.799,2.119-3.959c-2-1.24-2.64-3.319-2.64-5.359c0-4.479,2.64-6.679,7.079-6.679
			c1.68,0,3.399,0.24,4.799,1.32c0.84-0.4,1.24-1.04,1.32-1.88h2.56c-0.08,1.52-0.561,2.999-2.28,3.839
			c0.561,1.28,0.721,2.36,0.721,3.439C432.742,309.496,429.982,311.696,425.583,311.696z M425.663,301.178
			c-2.6,0-4.239,1.199-4.239,3.919s1.56,4,4.199,4c2.72,0,4.239-1.28,4.239-4S428.263,301.178,425.663,301.178z"/>
		<path fill="#333333" d="M449.022,301.777c-0.8-0.319-1.68-0.56-2.56-0.56c-2.6,0-4.8,1.84-4.8,4.279v12.638h-2.999v-19.397h2.56
			l0.08,2.32c1-1.76,3.159-2.68,5.159-2.68c1.319,0,2.56,0.32,3.759,0.96L449.022,301.777z"/>
		<path fill="#333333" d="M468.821,317.814l-2.6,0.641l-0.521-1.96c-1.8,1.479-3.599,2.079-5.639,2.079
			c-3.8,0-6.959-2.039-6.959-5.998c0-3.52,2.56-5.64,6.719-5.76c0.6-0.04,3,0,3,0c0.88-0.04,1.8-0.12,2.479-0.88v-1.6
			c0-2.039-2.12-3.199-3.96-3.199c-1.919,0-3.879,0.68-4.719,2.6l-2.6-0.88c1.2-3.16,3.879-4.44,7.398-4.44
			c3.279,0,6.719,2.239,6.719,5.679v10.799L468.821,317.814z M465.302,308.416c-1.08,0.601-1.52,0.641-2.319,0.641h-2.96
			c-2.08,0.04-4.159,1.039-4.159,3.52c0,2.399,2.279,3.438,4.279,3.438c2.039,0,3.6-0.72,5.159-2.159V308.416z"/>
		<path fill="#333333" d="M480.661,301.338h-3.119v11.758c0,1.8,0.68,2.399,2.439,2.439v2.6h-1.12c-2.999,0-4.319-2.04-4.319-4.799
			v-11.998h-2.72v-2.6h2.72v-5.64h3v5.64h3.119V301.338z"/>
		<path fill="#333333" d="M500.26,309.017h-13.038c0.12,3.919,1.68,6.679,5.84,6.679c1.999,0,3.599-0.72,4.759-2l1.96,1.84
			c-1.84,1.92-3.88,2.96-6.719,2.96c-6.159,0-8.959-4.279-8.959-10.039c0-5.599,2.6-10.039,8.639-10.039
			c5.039,0,7.519,3.92,7.519,9.159V309.017z M497.42,306.937c-0.159-3.159-1.359-5.719-4.799-5.719
			c-3.479,0-5.079,2.279-5.399,5.719H497.42z"/>
	</g>
	<path fill="#0049C9" d="M330.72,307.256c3.289,3.289,3.289,8.623,0,11.912c-3.289,3.289-8.623,3.289-11.912,0
		c-3.289-3.289-4.417-16.329-4.417-16.329S327.431,303.966,330.72,307.256z"/>
</g>
<g>
	<g>
		<path fill="#0049C9" d="M40.369,2.373c-1.078,2.422-2.345,4.403-3.763,6.268c-2.119,2.794-4.623,5.319-7.15,8.478
			c-2.522,3.154-5.015,6.955-6.94,12.155c-0.847,2.282-1.245,4.683-1.245,7.074c0.006,4.946,1.686,9.87,4.8,13.789
			c1.558,1.957,3.484,3.658,5.74,4.945c2.254,1.287,4.838,2.152,7.661,2.447c0.635,0.067,1.27,0.099,1.904,0.099
			c4.723-0.005,9.355-1.794,12.874-5.021c1.757-1.615,3.231-3.597,4.261-5.889c1.031-2.29,1.612-4.887,1.61-7.682l0-0.073v-0.004
			c-0.008-1.275-0.32-2.464-0.771-3.597c-0.798-1.979-2.043-3.841-3.445-5.624c-2.106-2.662-4.592-5.115-6.57-6.935
			c-1.977-1.817-3.443-2.989-3.478-3.018l-1.915-1.531l-1.725,1.742c-0.019,0.019-0.836,0.844-1.759,1.871
			c-0.462,0.515-0.95,1.078-1.393,1.641c-0.222,0.282-0.432,0.564-0.629,0.856c-0.197,0.295-0.381,0.588-0.558,0.968l4.953,2.278
			l-0.353-0.162l0.348,0.173l0.005-0.011l-0.353-0.162l0.348,0.173l0.009-0.016c0.055-0.107,0.325-0.497,0.659-0.905
			c0.505-0.626,1.169-1.362,1.694-1.922c0.263-0.281,0.492-0.52,0.654-0.688c0.081-0.084,0.145-0.149,0.188-0.193l0.048-0.049
			l0.014-0.014l-1.937-1.918l-1.702,2.129l0.005,0.004c0.145,0.114,3.379,2.729,6.488,6.002c1.553,1.631,3.073,3.433,4.139,5.087
			c0.534,0.824,0.952,1.61,1.216,2.281c0.268,0.672,0.37,1.22,0.369,1.562v-0.004l0,0.061c-0.001,2.047-0.417,3.854-1.131,5.446
			c-1.072,2.384-2.838,4.301-4.99,5.635c-2.15,1.333-4.676,2.06-7.172,2.059c-0.447,0-0.893-0.023-1.336-0.07
			c-2.075-0.219-3.909-0.839-5.528-1.761c-2.424-1.382-4.372-3.467-5.719-5.933c-1.346-2.462-2.072-5.294-2.07-8.065
			c0-1.786,0.298-3.543,0.905-5.177c1.136-3.059,2.45-5.494,3.873-7.631c2.131-3.203,4.547-5.751,7.006-8.607
			c2.45-2.849,4.929-6.029,6.844-10.344L40.369,2.373L40.369,2.373z"/>
	</g>
	<g>
		<path fill="#333333" d="M90.032,24.811H78.663v6.916h10.186v2.305H78.663v10.093h-2.461V22.382h13.83V24.811z"/>
		<path fill="#333333" d="M97.262,44.093c-2.617-0.062-3.925-1.184-3.925-3.738V22.382h2.243v17.974
			c0,0.872,0.373,1.619,1.651,1.713L97.262,44.093z"/>
		<path fill="#333333" d="M111.872,43.875l-2.025,0.499l-0.405-1.527c-1.402,1.152-2.803,1.619-4.392,1.619
			c-2.96,0-5.421-1.588-5.421-4.672c0-2.741,1.994-4.393,5.233-4.486c0.468-0.031,2.337,0,2.337,0
			c0.685-0.031,1.402-0.094,1.931-0.685v-1.246c0-1.588-1.651-2.492-3.084-2.492c-1.495,0-3.021,0.529-3.675,2.025l-2.025-0.685
			c0.935-2.461,3.022-3.458,5.763-3.458c2.554,0,5.233,1.744,5.233,4.423v8.411L111.872,43.875z M109.131,36.555
			c-0.841,0.468-1.184,0.499-1.807,0.499h-2.305c-1.62,0.031-3.239,0.809-3.239,2.741c0,1.869,1.775,2.678,3.333,2.678
			c1.588,0,2.804-0.561,4.018-1.682V36.555z"/>
		<path fill="#333333" d="M120.565,39.11c-0.592,0-1.059-0.062-1.713-0.218c-0.748,0.467-1.433,1.184-1.433,2.087
			c0,0.748,0.561,0.872,1.09,0.872c1.775,0,3.458-0.809,5.202-0.809c2.149,0,3.831,1.339,3.831,3.457
			c0,3.52-3.675,5.638-7.008,5.638c-2.804,0-6.168-1.184-6.168-4.268c0-0.373,0.062-0.809,0.187-1.184l2.087,0.654
			c-0.031,0.156-0.062,0.312-0.062,0.498c0,1.527,2.274,2.212,3.769,2.212c2.056,0,4.953-1.152,4.953-3.458
			c0-1.121-1.028-1.619-1.931-1.619c-1.589,0-3.053,0.654-4.61,0.654c-1.651,0-3.271-0.716-3.271-2.399
			c0-1.059,0.561-2.18,1.651-3.084c-1.558-0.966-2.056-2.585-2.056-4.174c0-3.489,2.056-5.202,5.514-5.202
			c1.308,0,2.648,0.187,3.738,1.028c0.654-0.312,0.966-0.81,1.028-1.464h1.994c-0.062,1.184-0.437,2.336-1.776,2.99
			c0.437,0.997,0.561,1.838,0.561,2.679C126.141,37.396,123.992,39.11,120.565,39.11z M120.628,30.917
			c-2.025,0-3.302,0.934-3.302,3.052s1.215,3.115,3.271,3.115c2.118,0,3.302-0.997,3.302-3.115S122.652,30.917,120.628,30.917z"/>
		<path fill="#333333" d="M138.822,31.384c-0.623-0.249-1.308-0.436-1.994-0.436c-2.025,0-3.738,1.433-3.738,3.333v9.843h-2.336
			V29.017h1.994l0.062,1.807c0.779-1.371,2.461-2.088,4.018-2.088c1.028,0,1.994,0.249,2.928,0.748L138.822,31.384z"/>
		<path fill="#333333" d="M154.242,43.875l-2.025,0.499l-0.405-1.527c-1.402,1.152-2.803,1.619-4.392,1.619
			c-2.96,0-5.42-1.588-5.42-4.672c0-2.741,1.994-4.393,5.233-4.486c0.467-0.031,2.337,0,2.337,0
			c0.685-0.031,1.402-0.094,1.931-0.685v-1.246c0-1.588-1.651-2.492-3.084-2.492c-1.495,0-3.021,0.529-3.675,2.025l-2.025-0.685
			c0.935-2.461,3.021-3.458,5.762-3.458c2.554,0,5.233,1.744,5.233,4.423v8.411L154.242,43.875z M151.501,36.555
			c-0.841,0.468-1.184,0.499-1.806,0.499h-2.305c-1.62,0.031-3.239,0.809-3.239,2.741c0,1.869,1.775,2.678,3.333,2.678
			c1.588,0,2.804-0.561,4.018-1.682V36.555z"/>
		<path fill="#333333" d="M163.464,31.042h-2.429V40.2c0,1.402,0.529,1.869,1.9,1.9v2.025h-0.872c-2.336,0-3.364-1.589-3.364-3.738
			v-9.345h-2.118v-2.025h2.118v-4.393h2.337v4.393h2.429V31.042z"/>
		<path fill="#333333" d="M178.729,37.023h-10.155c0.094,3.052,1.308,5.202,4.548,5.202c1.557,0,2.803-0.561,3.706-1.558
			l1.527,1.433c-1.433,1.495-3.022,2.305-5.233,2.305c-4.797,0-6.978-3.333-6.978-7.819c0-4.361,2.025-7.819,6.728-7.819
			c3.925,0,5.856,3.053,5.856,7.133V37.023z M176.517,35.403c-0.124-2.461-1.059-4.454-3.738-4.454c-2.71,0-3.956,1.775-4.205,4.454
			H176.517z"/>
	</g>
	<path fill="#0049C9" d="M46.679,35.651c2.562,2.562,2.562,6.716,0,9.278s-6.716,2.562-9.278,0s-3.44-12.718-3.44-12.718
		S44.117,33.089,46.679,35.651z"/>
</g>
<g>
</g>
<g>
</g>
<g>
</g>
<g>
</g>
<g>
</g>
<g>
</g>
<g>
</g>
<g>
</g>
<g>
</g>
<g>
</g>
<g>
</g>
<g>
</g>
<g>
</g>
<g>
</g>
<g>
</g>
</svg>
