<?xml version="1.0" encoding="utf-8"?>
<!-- Generator: Adobe Illustrator 17.0.0, SVG Export Plug-In . SVG Version: 6.00 Build 0)  -->
<!DOCTYPE svg PUBLIC "-//W3C//DTD SVG 1.1//EN" "http://www.w3.org/Graphics/SVG/1.1/DTD/svg11.dtd">
<svg version="1.1" id="レイヤー_1" xmlns="http://www.w3.org/2000/svg" xmlns:xlink="http://www.w3.org/1999/xlink" x="0px"
	 y="0px" width="200px" height="60px" viewBox="0 0 200 60" enable-background="new 0 0 200 60" xml:space="preserve">
<g>
	<g>
		<path fill="#555555" d="M57.778,19.227H70.35v0.931H58.809v9.246h9.712v0.931h-9.712v10.842h-1.031V19.227z"/>
		<path fill="#555555" d="M72.445,17.165h7.084v19.622c0,2.573,1.186,3.858,3.559,3.858c0.532,0,1.069-0.071,1.613-0.216
			c0.543-0.145,1.147-0.371,1.813-0.682l0.399,0.831c-0.644,0.244-1.259,0.472-1.846,0.682c-0.587,0.211-1.27,0.316-2.045,0.316
			c-1.441,0-2.55-0.383-3.326-1.147c-0.776-0.766-1.164-2.046-1.164-3.842V18.096h-6.086V17.165z"/>
		<path fill="#555555" d="M89.041,37.286c0-0.887,0.238-1.663,0.715-2.328c0.477-0.665,1.214-1.235,2.212-1.713
			c0.998-0.477,2.283-0.875,3.858-1.197c1.574-0.321,3.459-0.582,5.655-0.781c0-0.687-0.078-1.364-0.233-2.029
			s-0.416-1.247-0.782-1.746s-0.87-0.903-1.513-1.214c-0.644-0.311-1.441-0.466-2.395-0.466c-0.644,0-1.264,0.072-1.863,0.216
			c-0.599,0.145-1.169,0.333-1.713,0.565s-1.037,0.482-1.48,0.748c-0.443,0.266-0.82,0.511-1.13,0.732l-0.532-0.798
			c0.288-0.221,0.665-0.471,1.131-0.748c0.465-0.277,0.998-0.538,1.596-0.782c0.599-0.244,1.247-0.449,1.946-0.615
			c0.698-0.167,1.402-0.25,2.112-0.25c1.064,0,1.967,0.161,2.71,0.482c0.743,0.321,1.347,0.76,1.813,1.313
			c0.466,0.555,0.804,1.192,1.015,1.913c0.211,0.721,0.316,1.48,0.316,2.278v10.31h-0.865l-0.133-2.461h-0.067
			c-0.465,0.377-0.97,0.737-1.513,1.081c-0.543,0.344-1.103,0.648-1.68,0.914c-0.577,0.267-1.169,0.477-1.779,0.632
			s-1.214,0.233-1.813,0.233c-0.71,0-1.397-0.083-2.062-0.25c-0.665-0.166-1.259-0.421-1.779-0.765
			c-0.521-0.344-0.943-0.787-1.264-1.33C89.202,38.689,89.041,38.04,89.041,37.286z M90.105,37.253c0,0.621,0.133,1.147,0.399,1.58
			s0.615,0.781,1.048,1.048c0.432,0.266,0.919,0.46,1.463,0.582c0.543,0.122,1.103,0.183,1.679,0.183c2.106,0,4.368-1.02,6.786-3.06
			v-5.455c-2.151,0.2-3.953,0.449-5.405,0.749c-1.453,0.299-2.622,0.66-3.509,1.081c-0.887,0.421-1.519,0.903-1.896,1.446
			C90.293,35.951,90.105,36.566,90.105,37.253z"/>
		<path fill="#555555" d="M105.404,44.271c0-0.621,0.238-1.275,0.715-1.962c0.477-0.688,1.147-1.308,2.013-1.862v-0.133
			c-0.399-0.178-0.776-0.477-1.131-0.898c-0.355-0.421-0.532-0.965-0.532-1.63c0-0.51,0.16-1.025,0.482-1.546
			c0.321-0.521,0.803-1.004,1.446-1.447v-0.133c-0.51-0.443-0.947-0.998-1.313-1.663s-0.549-1.485-0.549-2.461
			c0-0.798,0.149-1.541,0.449-2.228c0.299-0.687,0.715-1.286,1.247-1.796c0.532-0.51,1.147-0.909,1.846-1.197
			s1.447-0.433,2.245-0.433c0.82,0,1.53,0.133,2.129,0.399h6.651v0.932h-5.056c0.532,0.51,1.009,1.125,1.431,1.846
			c0.421,0.721,0.632,1.546,0.632,2.478c0,0.798-0.149,1.542-0.449,2.229c-0.299,0.688-0.715,1.28-1.247,1.779
			c-0.532,0.498-1.147,0.887-1.846,1.164s-1.447,0.415-2.245,0.415c-0.511,0-1.031-0.066-1.563-0.199s-1.053-0.333-1.563-0.599
			c-0.511,0.311-0.915,0.671-1.215,1.081c-0.299,0.41-0.448,0.837-0.448,1.28c0,0.82,0.349,1.419,1.047,1.796
			c0.699,0.377,1.613,0.565,2.744,0.565h4.091c2.018,0,3.47,0.271,4.357,0.814c0.887,0.544,1.33,1.447,1.33,2.711
			c0,0.665-0.194,1.319-0.582,1.962c-0.389,0.644-0.937,1.22-1.646,1.729s-1.574,0.92-2.594,1.231
			c-1.021,0.31-2.162,0.465-3.426,0.465c-2.528,0-4.401-0.438-5.621-1.313S105.404,45.646,105.404,44.271z M106.469,44.404
			c0,1.02,0.504,1.879,1.513,2.577s2.566,1.048,4.673,1.048c1.153,0,2.189-0.128,3.11-0.383c0.92-0.255,1.696-0.594,2.328-1.015
			s1.114-0.893,1.446-1.413c0.333-0.521,0.499-1.048,0.499-1.58c0-0.953-0.36-1.613-1.081-1.979
			c-0.721-0.366-1.813-0.549-3.275-0.549h-4.024c-0.378,0-0.782-0.021-1.214-0.066c-0.433-0.044-0.838-0.122-1.214-0.233
			c-1.043,0.555-1.763,1.137-2.162,1.746C106.668,43.168,106.469,43.783,106.469,44.404z M112.322,35.191
			c0.643,0,1.252-0.116,1.829-0.35c0.576-0.232,1.081-0.554,1.514-0.965c0.432-0.409,0.77-0.897,1.014-1.463
			s0.366-1.191,0.366-1.879c0-0.687-0.122-1.319-0.366-1.896c-0.244-0.576-0.582-1.075-1.014-1.497
			c-0.433-0.421-0.938-0.749-1.514-0.981c-0.577-0.232-1.187-0.349-1.829-0.349c-0.644,0-1.253,0.117-1.829,0.349
			c-0.577,0.233-1.081,0.561-1.514,0.981c-0.433,0.421-0.771,0.92-1.015,1.497c-0.244,0.577-0.365,1.208-0.365,1.896
			c0,0.688,0.121,1.314,0.365,1.879s0.582,1.054,1.015,1.463c0.433,0.411,0.937,0.732,1.514,0.965
			C111.069,35.075,111.679,35.191,112.322,35.191z"/>
		<path fill="#555555" d="M124.761,25.28h0.864l0.133,3.991h0.067c0.864-1.264,1.939-2.312,3.226-3.143s2.749-1.247,4.391-1.247
			c0.51,0,1.042,0.045,1.596,0.133c0.555,0.089,1.087,0.266,1.597,0.532l-0.266,0.932c-0.599-0.222-1.104-0.377-1.514-0.466
			c-0.41-0.088-0.926-0.133-1.547-0.133c-1.375,0-2.688,0.388-3.94,1.164c-1.253,0.777-2.456,2.096-3.609,3.958v10.178h-0.997V25.28
			z"/>
		<path fill="#555555" d="M138.928,37.286c0-0.887,0.238-1.663,0.716-2.328c0.477-0.665,1.214-1.235,2.212-1.713
			c0.997-0.477,2.283-0.875,3.857-1.197c1.574-0.321,3.459-0.582,5.654-0.781c0-0.687-0.078-1.364-0.233-2.029
			s-0.415-1.247-0.781-1.746s-0.87-0.903-1.514-1.214c-0.643-0.311-1.441-0.466-2.395-0.466c-0.643,0-1.264,0.072-1.862,0.216
			c-0.599,0.145-1.17,0.333-1.713,0.565s-1.036,0.482-1.479,0.748c-0.444,0.266-0.821,0.511-1.131,0.732l-0.532-0.798
			c0.288-0.221,0.665-0.471,1.131-0.748s0.998-0.538,1.597-0.782c0.599-0.244,1.247-0.449,1.945-0.615
			c0.698-0.167,1.402-0.25,2.111-0.25c1.064,0,1.968,0.161,2.711,0.482s1.347,0.76,1.813,1.313c0.466,0.555,0.804,1.192,1.015,1.913
			c0.211,0.721,0.316,1.48,0.316,2.278v10.31H151.5l-0.133-2.461h-0.066c-0.466,0.377-0.971,0.737-1.514,1.081
			s-1.104,0.648-1.68,0.914c-0.576,0.267-1.17,0.477-1.779,0.632c-0.61,0.155-1.214,0.233-1.813,0.233
			c-0.71,0-1.396-0.083-2.062-0.25c-0.666-0.166-1.259-0.421-1.78-0.765c-0.521-0.344-0.942-0.787-1.264-1.33
			S138.928,38.04,138.928,37.286z M139.992,37.253c0,0.621,0.134,1.147,0.399,1.58s0.615,0.781,1.048,1.048
			c0.433,0.266,0.92,0.46,1.463,0.582s1.104,0.183,1.68,0.183c2.106,0,4.368-1.02,6.785-3.06v-5.455
			c-2.151,0.2-3.953,0.449-5.404,0.749c-1.453,0.299-2.623,0.66-3.509,1.081c-0.888,0.421-1.52,0.903-1.896,1.446
			C140.181,35.951,139.992,36.566,139.992,37.253z"/>
		<path fill="#555555" d="M160.081,26.211h-4.889v-0.798l4.889-0.133l0.133-4.656h0.865v4.656h8.681v0.932h-8.681v9.246
			c0,0.799,0.066,1.52,0.199,2.162c0.134,0.644,0.366,1.187,0.699,1.63c0.332,0.443,0.792,0.787,1.38,1.03
			c0.587,0.245,1.347,0.366,2.278,0.366c0.887,0,1.68-0.077,2.378-0.232s1.369-0.366,2.012-0.632l0.333,0.798
			c-0.71,0.311-1.503,0.555-2.378,0.731c-0.876,0.178-1.68,0.267-2.411,0.267c-1.064,0-1.946-0.15-2.645-0.449
			c-0.698-0.3-1.259-0.726-1.68-1.28s-0.721-1.214-0.897-1.979c-0.178-0.765-0.267-1.612-0.267-2.544V26.211z"/>
		<path fill="#555555" d="M171.655,33.262c0-1.285,0.221-2.449,0.665-3.492c0.443-1.042,1.036-1.923,1.779-2.644
			c0.742-0.72,1.591-1.275,2.544-1.663c0.953-0.388,1.929-0.582,2.927-0.582c1.064,0,2.029,0.167,2.894,0.499
			c0.865,0.333,1.607,0.815,2.229,1.447c0.62,0.632,1.098,1.397,1.43,2.295c0.333,0.898,0.499,1.923,0.499,3.077
			c0,0.178,0,0.349,0,0.515c0,0.167-0.022,0.35-0.066,0.549h-13.836c0,1.064,0.178,2.046,0.532,2.943
			c0.354,0.898,0.849,1.68,1.48,2.345c0.632,0.666,1.396,1.182,2.295,1.547c0.897,0.366,1.9,0.549,3.01,0.549
			c1.108,0,2.106-0.166,2.993-0.499c0.887-0.332,1.707-0.765,2.461-1.297l0.466,0.864c-0.354,0.223-0.727,0.444-1.114,0.666
			s-0.826,0.421-1.313,0.599c-0.488,0.178-1.021,0.321-1.597,0.432c-0.576,0.111-1.23,0.167-1.962,0.167
			c-1.131,0-2.201-0.188-3.21-0.565s-1.891-0.926-2.644-1.646c-0.754-0.721-1.353-1.591-1.796-2.611
			C171.876,35.734,171.655,34.57,171.655,33.262z M185.624,32.397c0-2.195-0.561-3.841-1.68-4.939
			c-1.12-1.098-2.578-1.646-4.374-1.646c-0.843,0-1.652,0.155-2.428,0.466c-0.776,0.311-1.475,0.748-2.096,1.313
			s-1.136,1.253-1.546,2.062c-0.411,0.81-0.671,1.725-0.782,2.744H185.624z"/>
	</g>
	<path fill="#1A60ED" d="M12.943,29.44c-0.144,0.88-0.223,1.781-0.223,2.703c0,9.249,7.498,16.792,16.746,16.792
		s16.746-7.475,16.746-16.723c0-3.327-1.084-7.053-2.638-9.975c-0.561-1.054-1.221-2.088-2.049-2.954
		c-0.12,3.785-1.976,7.207-1.976,7.207c0.661-2.013,0.954-3.374,0.825-5.043c-2.595-2.176-6.398-4.814-7.934-8.054
		c-0.54-1.139-0.679-2.423-0.897-3.649c0,0-2.348,4.147-6.112,6.784c-0.549,0.414-6.908,4.467-7.049,7.029
		c0,0-1.118-1.167-1.339-2.635c-1.898,2.119-3.271,4.695-3.914,7.547L12.943,29.44z M36.973,43.291
		c-0.13,0.261-0.279,0.516-0.439,0.76c-0.369,0.562-0.839,1.08-1.342,1.526c-0.746,0.661-1.557,1.204-2.49,1.564
		c-1.034,0.399-2.139,0.603-3.245,0.612c-1.406,0.012-2.815-0.303-4.087-0.891c-1.694-0.783-3.463-1.898-4.336-3.619
		c-0.24-0.472-0.436-1.011-0.544-1.531c-0.047-0.226-0.083-0.455-0.105-0.685c-0.013-0.14-0.004-0.306,0.006-0.441
		c0.954,1.025,2.216,1.999,3.593,2.34c0.264,0.065,0.534,0.103,0.806,0.12c0.148,0.009,0.716,0.1,0.826,0.007
		c0.003-0.003,3.036-2.57,3.85-8.373c0,0,4.931,5.698,7.986,3.62c0,0.023,0.096,0.301,0.104,0.334
		c0.046,0.172,0.094,0.345,0.121,0.521c0.056,0.373,0.07,0.755,0.058,1.132C37.701,41.334,37.441,42.351,36.973,43.291z"/>
	<g>
		<path fill="#555555" d="M125.738,46.697h-1.319l-0.35,1.108h-0.471l1.225-3.637h0.521l1.225,3.637h-0.487L125.738,46.697z
			 M125.621,46.325l-0.172-0.554c-0.063-0.203-0.123-0.405-0.183-0.607c-0.059-0.201-0.118-0.407-0.177-0.618h-0.022
			c-0.06,0.211-0.118,0.417-0.178,0.618c-0.059,0.202-0.12,0.404-0.183,0.607l-0.172,0.554H125.621z"/>
		<path fill="#555555" d="M129.491,46.991c0.107,0.162,0.228,0.282,0.36,0.36c0.133,0.077,0.27,0.116,0.41,0.116
			c0.263,0,0.454-0.069,0.574-0.208s0.18-0.357,0.18-0.657v-2.051h-1.524v-0.388h1.984v2.478c0,0.17-0.02,0.33-0.061,0.479
			s-0.108,0.28-0.202,0.391c-0.095,0.111-0.219,0.199-0.372,0.264s-0.343,0.097-0.567,0.097c-0.207,0-0.408-0.048-0.602-0.144
			c-0.194-0.097-0.354-0.25-0.479-0.461L129.491,46.991z"/>
		<path fill="#555555" d="M131.854,47.107c0-0.151,0.036-0.284,0.107-0.396c0.072-0.112,0.187-0.21,0.344-0.291
			s0.359-0.147,0.607-0.199c0.247-0.052,0.545-0.093,0.893-0.122c-0.004-0.093-0.019-0.18-0.045-0.261
			c-0.025-0.081-0.066-0.152-0.121-0.214c-0.056-0.061-0.129-0.109-0.22-0.146c-0.09-0.037-0.2-0.056-0.329-0.056
			c-0.178,0-0.348,0.034-0.511,0.103c-0.162,0.068-0.307,0.142-0.432,0.219l-0.178-0.31c0.066-0.045,0.145-0.09,0.235-0.136
			c0.091-0.047,0.187-0.088,0.288-0.125s0.21-0.067,0.324-0.092c0.115-0.023,0.231-0.036,0.35-0.036
			c0.369,0,0.644,0.101,0.823,0.303c0.179,0.201,0.269,0.47,0.269,0.806v1.652h-0.371l-0.039-0.366h-0.017
			c-0.151,0.119-0.318,0.221-0.502,0.306c-0.183,0.085-0.37,0.127-0.563,0.127c-0.125,0-0.243-0.018-0.354-0.053
			c-0.11-0.035-0.208-0.085-0.291-0.149s-0.148-0.145-0.196-0.238C131.877,47.337,131.854,47.229,131.854,47.107z M132.297,47.074
			c0,0.077,0.017,0.143,0.05,0.196s0.076,0.099,0.13,0.133c0.054,0.035,0.117,0.062,0.188,0.078
			c0.072,0.017,0.147,0.024,0.225,0.024c0.155,0,0.308-0.033,0.458-0.103c0.149-0.068,0.302-0.167,0.457-0.296v-0.71
			c-0.288,0.022-0.529,0.054-0.724,0.095c-0.194,0.04-0.35,0.09-0.466,0.146c-0.116,0.058-0.198,0.122-0.246,0.194
			C132.32,46.905,132.297,46.985,132.297,47.074z"/>
		<path fill="#555555" d="M134.347,45.111h0.461l0.62,1.53c0.056,0.137,0.108,0.271,0.158,0.402c0.05,0.131,0.099,0.261,0.147,0.391
			h0.021c0.048-0.13,0.096-0.26,0.142-0.391c0.046-0.132,0.097-0.266,0.152-0.402l0.621-1.53h0.438l-1.114,2.694h-0.51
			L134.347,45.111z"/>
		<path fill="#555555" d="M137.175,47.107c0-0.151,0.036-0.284,0.107-0.396c0.072-0.112,0.187-0.21,0.344-0.291
			s0.359-0.147,0.607-0.199c0.247-0.052,0.545-0.093,0.893-0.122c-0.004-0.093-0.019-0.18-0.045-0.261
			c-0.025-0.081-0.066-0.152-0.121-0.214c-0.056-0.061-0.129-0.109-0.22-0.146c-0.09-0.037-0.2-0.056-0.329-0.056
			c-0.178,0-0.348,0.034-0.511,0.103c-0.162,0.068-0.307,0.142-0.432,0.219l-0.178-0.31c0.066-0.045,0.145-0.09,0.235-0.136
			c0.091-0.047,0.187-0.088,0.288-0.125s0.21-0.067,0.324-0.092c0.115-0.023,0.231-0.036,0.35-0.036
			c0.369,0,0.644,0.101,0.823,0.303c0.179,0.201,0.269,0.47,0.269,0.806v1.652h-0.371l-0.039-0.366h-0.017
			c-0.151,0.119-0.318,0.221-0.502,0.306c-0.183,0.085-0.37,0.127-0.563,0.127c-0.125,0-0.243-0.018-0.354-0.053
			c-0.11-0.035-0.208-0.085-0.291-0.149s-0.148-0.145-0.196-0.238C137.198,47.337,137.175,47.229,137.175,47.107z M137.618,47.074
			c0,0.077,0.017,0.143,0.05,0.196s0.076,0.099,0.13,0.133c0.054,0.035,0.117,0.062,0.188,0.078
			c0.072,0.017,0.147,0.024,0.225,0.024c0.155,0,0.308-0.033,0.458-0.103c0.149-0.068,0.302-0.167,0.457-0.296v-0.71
			c-0.288,0.022-0.529,0.054-0.724,0.095c-0.194,0.04-0.35,0.09-0.466,0.146c-0.116,0.058-0.198,0.122-0.246,0.194
			C137.642,46.905,137.618,46.985,137.618,47.074z"/>
		<path fill="#555555" d="M140.035,47.013c0.137,0.137,0.296,0.247,0.477,0.33c0.182,0.083,0.372,0.125,0.571,0.125
			c0.259,0,0.458-0.055,0.599-0.164c0.141-0.108,0.211-0.252,0.211-0.43c0-0.092-0.017-0.171-0.05-0.235
			c-0.034-0.064-0.08-0.12-0.139-0.166c-0.06-0.046-0.129-0.088-0.208-0.125c-0.08-0.037-0.166-0.075-0.258-0.116l-0.521-0.228
			c-0.092-0.037-0.185-0.081-0.277-0.133c-0.092-0.052-0.176-0.114-0.252-0.188c-0.075-0.074-0.138-0.161-0.186-0.264
			c-0.048-0.102-0.072-0.219-0.072-0.352c0-0.137,0.03-0.265,0.089-0.383c0.06-0.118,0.142-0.221,0.247-0.308
			s0.23-0.154,0.377-0.202c0.146-0.048,0.306-0.072,0.479-0.072c0.229,0,0.439,0.042,0.632,0.125
			c0.191,0.083,0.354,0.191,0.487,0.324l-0.244,0.3c-0.118-0.107-0.248-0.191-0.391-0.253c-0.142-0.061-0.304-0.091-0.484-0.091
			c-0.222,0-0.397,0.047-0.527,0.141c-0.129,0.095-0.193,0.225-0.193,0.392c0,0.088,0.02,0.163,0.058,0.224
			c0.039,0.062,0.089,0.115,0.15,0.161c0.061,0.046,0.13,0.086,0.207,0.119c0.078,0.033,0.155,0.066,0.233,0.1l0.51,0.222
			c0.111,0.045,0.215,0.096,0.313,0.152c0.098,0.058,0.183,0.124,0.255,0.2c0.072,0.075,0.129,0.164,0.172,0.266
			c0.042,0.102,0.063,0.219,0.063,0.353c0,0.144-0.029,0.278-0.089,0.404c-0.059,0.126-0.144,0.235-0.255,0.33
			c-0.11,0.094-0.246,0.168-0.404,0.222c-0.159,0.054-0.338,0.08-0.538,0.08c-0.266,0-0.511-0.048-0.734-0.144
			c-0.224-0.097-0.418-0.228-0.585-0.394L140.035,47.013z"/>
		<path fill="#555555" d="M142.491,46.464c0-0.225,0.04-0.426,0.119-0.602c0.079-0.175,0.188-0.324,0.324-0.445
			c0.137-0.122,0.297-0.215,0.479-0.277c0.183-0.063,0.376-0.095,0.579-0.095c0.222,0,0.413,0.039,0.574,0.116
			c0.16,0.078,0.297,0.171,0.407,0.277l-0.228,0.294c-0.11-0.096-0.227-0.172-0.346-0.228c-0.12-0.055-0.251-0.083-0.392-0.083
			c-0.155,0-0.297,0.025-0.427,0.075c-0.129,0.05-0.239,0.121-0.329,0.213c-0.091,0.093-0.162,0.203-0.214,0.33
			c-0.052,0.128-0.077,0.269-0.077,0.424s0.024,0.296,0.074,0.422c0.05,0.125,0.12,0.233,0.211,0.324s0.199,0.16,0.327,0.211
			c0.127,0.05,0.269,0.074,0.424,0.074c0.166,0,0.318-0.032,0.457-0.097s0.266-0.146,0.38-0.241l0.199,0.294
			c-0.147,0.133-0.313,0.236-0.496,0.311c-0.183,0.073-0.374,0.11-0.573,0.11c-0.211,0-0.405-0.031-0.585-0.094
			c-0.179-0.063-0.335-0.154-0.469-0.274c-0.133-0.12-0.236-0.269-0.31-0.443C142.528,46.885,142.491,46.686,142.491,46.464z"/>
		<path fill="#555555" d="M145.519,45.111h0.377l0.038,0.638h0.017c0.141-0.218,0.313-0.39,0.519-0.516
			c0.205-0.125,0.434-0.188,0.685-0.188c0.1,0,0.191,0.009,0.274,0.025s0.167,0.045,0.252,0.086l-0.094,0.394
			c-0.097-0.033-0.178-0.058-0.244-0.072s-0.153-0.022-0.261-0.022c-0.203,0-0.397,0.059-0.584,0.175
			c-0.188,0.116-0.361,0.315-0.524,0.596v1.58h-0.454V45.111z"/>
		<path fill="#555555" d="M147.869,45.111h1.707v2.694h-0.454v-2.322h-1.253V45.111z M149.299,44.558
			c-0.106,0-0.194-0.031-0.263-0.095c-0.068-0.063-0.103-0.147-0.103-0.255s0.034-0.193,0.103-0.258s0.156-0.097,0.263-0.097
			c0.104,0,0.19,0.032,0.261,0.097s0.105,0.15,0.105,0.258s-0.035,0.192-0.105,0.255C149.489,44.526,149.402,44.558,149.299,44.558z
			"/>
		<path fill="#555555" d="M151.001,48.033v0.909h-0.454v-3.831h0.377l0.039,0.344h0.017c0.125-0.118,0.271-0.216,0.435-0.294
			c0.165-0.077,0.33-0.116,0.496-0.116c0.182,0,0.341,0.032,0.479,0.098c0.139,0.064,0.255,0.156,0.35,0.276
			c0.094,0.12,0.165,0.265,0.213,0.433s0.072,0.357,0.072,0.568c0,0.229-0.033,0.434-0.1,0.612c-0.066,0.18-0.156,0.332-0.269,0.457
			c-0.113,0.126-0.243,0.222-0.391,0.286c-0.148,0.064-0.304,0.097-0.466,0.097c-0.126,0-0.262-0.03-0.407-0.092
			c-0.146-0.061-0.28-0.146-0.402-0.257L151.001,48.033z M151.001,47.174c0.13,0.114,0.259,0.196,0.389,0.244
			c0.129,0.048,0.24,0.071,0.332,0.071c0.244,0,0.443-0.094,0.599-0.282s0.233-0.451,0.233-0.787c0-0.147-0.016-0.283-0.045-0.404
			c-0.029-0.122-0.074-0.227-0.136-0.313c-0.061-0.087-0.14-0.154-0.235-0.202s-0.211-0.072-0.344-0.072
			c-0.118,0-0.245,0.032-0.38,0.097c-0.135,0.065-0.272,0.168-0.413,0.308V47.174z"/>
		<path fill="#555555" d="M153.833,45.483h-0.759V45.14l0.775-0.028l0.062-0.754h0.377v0.754h1.319v0.372h-1.319v1.28
			c0,0.122,0.011,0.229,0.033,0.318c0.022,0.091,0.059,0.168,0.11,0.23s0.122,0.109,0.211,0.142
			c0.089,0.031,0.197,0.047,0.327,0.047c0.129,0,0.246-0.012,0.35-0.033c0.103-0.022,0.203-0.052,0.299-0.089l0.095,0.333
			c-0.119,0.044-0.252,0.082-0.399,0.113c-0.148,0.031-0.296,0.047-0.443,0.047c-0.196,0-0.36-0.026-0.493-0.08
			c-0.134-0.054-0.239-0.13-0.319-0.228c-0.079-0.098-0.137-0.215-0.172-0.352s-0.053-0.289-0.053-0.455V45.483z"/>
		<path fill="#555555" d="M158.451,44.169h0.466v2.273c0,0.188,0.02,0.348,0.059,0.479c0.039,0.131,0.092,0.236,0.16,0.315
			c0.068,0.08,0.149,0.138,0.241,0.175c0.093,0.037,0.194,0.056,0.306,0.056c0.11,0,0.212-0.019,0.305-0.056
			c0.092-0.037,0.174-0.095,0.243-0.175c0.07-0.079,0.125-0.185,0.164-0.315c0.039-0.132,0.059-0.291,0.059-0.479v-2.273h0.448
			v2.262c0,0.263-0.03,0.484-0.091,0.665c-0.062,0.182-0.146,0.33-0.253,0.446c-0.106,0.117-0.235,0.201-0.385,0.253
			s-0.313,0.077-0.49,0.077c-0.178,0-0.343-0.025-0.494-0.077s-0.281-0.136-0.391-0.253c-0.108-0.116-0.193-0.265-0.255-0.446
			c-0.061-0.181-0.092-0.402-0.092-0.665V44.169z"/>
		<path fill="#555555" d="M161.201,47.412h0.903v-2.854h-0.903v-0.389h2.272v0.389h-0.903v2.854h0.903v0.394h-2.272V47.412z"/>
		<path fill="#555555" d="M166.446,43.859h1.374v3.076c0,0.199,0.048,0.343,0.142,0.43c0.095,0.087,0.223,0.13,0.386,0.13
			c0.147,0,0.317-0.042,0.51-0.127l0.116,0.344c-0.122,0.044-0.236,0.082-0.344,0.113s-0.234,0.047-0.382,0.047
			c-0.289,0-0.508-0.081-0.657-0.244c-0.149-0.162-0.225-0.404-0.225-0.726V44.23h-0.92V43.859z"/>
		<path fill="#555555" d="M169.157,45.111h1.707v2.694h-0.454v-2.322h-1.253V45.111z M170.587,44.558
			c-0.106,0-0.194-0.031-0.263-0.095c-0.068-0.063-0.103-0.147-0.103-0.255s0.034-0.193,0.103-0.258s0.156-0.097,0.263-0.097
			c0.104,0,0.19,0.032,0.261,0.097s0.105,0.15,0.105,0.258s-0.035,0.192-0.105,0.255C170.777,44.526,170.69,44.558,170.587,44.558z"
			/>
		<path fill="#555555" d="M171.834,43.859h0.454v1.075l-0.011,0.521c0.129-0.125,0.274-0.225,0.436-0.299
			c0.16-0.074,0.32-0.111,0.479-0.111c0.181,0,0.342,0.032,0.481,0.098c0.141,0.064,0.258,0.156,0.353,0.276
			c0.094,0.12,0.165,0.265,0.213,0.433s0.072,0.355,0.072,0.563c0,0.229-0.033,0.435-0.1,0.615c-0.066,0.182-0.156,0.335-0.269,0.46
			c-0.113,0.126-0.243,0.222-0.391,0.286c-0.148,0.064-0.302,0.097-0.461,0.097c-0.129,0-0.269-0.032-0.418-0.097
			s-0.289-0.154-0.419-0.27h-0.017l-0.038,0.3h-0.366V43.859z M172.288,47.174c0.13,0.114,0.26,0.196,0.392,0.244
			c0.131,0.048,0.244,0.071,0.341,0.071c0.118,0,0.227-0.024,0.326-0.074c0.101-0.05,0.188-0.12,0.261-0.211
			c0.074-0.091,0.132-0.202,0.172-0.335c0.041-0.134,0.062-0.283,0.062-0.449c0-0.147-0.016-0.283-0.045-0.404
			c-0.029-0.122-0.074-0.227-0.136-0.313c-0.061-0.087-0.14-0.154-0.235-0.202s-0.211-0.072-0.344-0.072
			c-0.118,0-0.245,0.032-0.38,0.097c-0.135,0.065-0.272,0.168-0.413,0.308V47.174z"/>
		<path fill="#555555" d="M174.789,45.111h0.377l0.038,0.638h0.017c0.141-0.218,0.313-0.39,0.519-0.516
			c0.205-0.125,0.434-0.188,0.685-0.188c0.1,0,0.191,0.009,0.274,0.025s0.167,0.045,0.252,0.086l-0.094,0.394
			c-0.097-0.033-0.178-0.058-0.244-0.072s-0.153-0.022-0.261-0.022c-0.203,0-0.397,0.059-0.584,0.175
			c-0.188,0.116-0.361,0.315-0.524,0.596v1.58h-0.454V45.111z"/>
		<path fill="#555555" d="M177.09,47.107c0-0.151,0.036-0.284,0.107-0.396c0.072-0.112,0.187-0.21,0.344-0.291
			s0.359-0.147,0.607-0.199c0.247-0.052,0.545-0.093,0.893-0.122c-0.004-0.093-0.019-0.18-0.045-0.261
			c-0.025-0.081-0.066-0.152-0.121-0.214c-0.056-0.061-0.129-0.109-0.22-0.146c-0.09-0.037-0.2-0.056-0.329-0.056
			c-0.178,0-0.348,0.034-0.511,0.103c-0.162,0.068-0.307,0.142-0.432,0.219l-0.178-0.31c0.066-0.045,0.145-0.09,0.235-0.136
			c0.091-0.047,0.187-0.088,0.288-0.125s0.21-0.067,0.324-0.092c0.115-0.023,0.231-0.036,0.35-0.036
			c0.369,0,0.644,0.101,0.823,0.303c0.179,0.201,0.269,0.47,0.269,0.806v1.652h-0.371l-0.039-0.366h-0.017
			c-0.151,0.119-0.318,0.221-0.502,0.306c-0.183,0.085-0.37,0.127-0.563,0.127c-0.125,0-0.243-0.018-0.354-0.053
			c-0.11-0.035-0.208-0.085-0.291-0.149s-0.148-0.145-0.196-0.238C177.113,47.337,177.09,47.229,177.09,47.107z M177.533,47.074
			c0,0.077,0.017,0.143,0.05,0.196s0.076,0.099,0.13,0.133c0.054,0.035,0.117,0.062,0.188,0.078
			c0.072,0.017,0.147,0.024,0.225,0.024c0.155,0,0.308-0.033,0.458-0.103c0.149-0.068,0.302-0.167,0.457-0.296v-0.71
			c-0.288,0.022-0.529,0.054-0.724,0.095c-0.194,0.04-0.35,0.09-0.466,0.146c-0.116,0.058-0.198,0.122-0.246,0.194
			C177.557,46.905,177.533,46.985,177.533,47.074z"/>
		<path fill="#555555" d="M180.111,45.111h0.377l0.038,0.638h0.017c0.141-0.218,0.313-0.39,0.519-0.516
			c0.205-0.125,0.434-0.188,0.685-0.188c0.1,0,0.191,0.009,0.274,0.025s0.167,0.045,0.252,0.086l-0.094,0.394
			c-0.097-0.033-0.178-0.058-0.244-0.072s-0.153-0.022-0.261-0.022c-0.203,0-0.397,0.059-0.584,0.175
			c-0.188,0.116-0.361,0.315-0.524,0.596v1.58h-0.454V45.111z"/>
		<path fill="#555555" d="M182.548,48.576c0.042,0.008,0.084,0.011,0.125,0.011c0.188,0,0.342-0.055,0.46-0.163
			c0.118-0.109,0.21-0.247,0.276-0.413l0.084-0.199l-1.259-2.7h0.46l0.66,1.491c0.052,0.118,0.105,0.246,0.163,0.383
			s0.114,0.27,0.169,0.399h0.022c0.048-0.13,0.097-0.262,0.146-0.396c0.051-0.135,0.098-0.264,0.142-0.386l0.588-1.491h0.433
			l-1.187,2.916c-0.052,0.133-0.111,0.257-0.178,0.371c-0.066,0.115-0.146,0.214-0.238,0.297c-0.092,0.083-0.198,0.148-0.318,0.197
			c-0.12,0.048-0.256,0.071-0.407,0.071c-0.134,0-0.252-0.019-0.355-0.055l0.095-0.36C182.466,48.56,182.505,48.568,182.548,48.576z
			"/>
		<path fill="#555555" d="M185.838,47.406c0-0.14,0.044-0.254,0.13-0.341c0.087-0.087,0.193-0.13,0.319-0.13
			c0.125,0,0.231,0.043,0.318,0.13s0.131,0.201,0.131,0.341c0,0.141-0.044,0.254-0.131,0.339s-0.193,0.127-0.318,0.127
			c-0.126,0-0.232-0.042-0.319-0.127C185.882,47.66,185.838,47.547,185.838,47.406z"/>
	</g>
</g>
<g>
</g>
<g>
</g>
<g>
</g>
<g>
</g>
<g>
</g>
<g>
</g>
<g>
</g>
<g>
</g>
<g>
</g>
<g>
</g>
<g>
</g>
<g>
</g>
<g>
</g>
<g>
</g>
<g>
</g>
</svg>
