<?xml version="1.0" encoding="utf-8"?>
<!-- Generator: Adobe Illustrator 17.1.0, SVG Export Plug-In . SVG Version: 6.00 Build 0)  -->
<!DOCTYPE svg PUBLIC "-//W3C//DTD SVG 1.0//EN" "http://www.w3.org/TR/2001/REC-SVG-20010904/DTD/svg10.dtd">
<svg version="1.0" id="レイヤー_1" xmlns="http://www.w3.org/2000/svg" xmlns:xlink="http://www.w3.org/1999/xlink" x="0px"
	 y="0px" viewBox="0 0 128 128" enable-background="new 0 0 128 128" xml:space="preserve">
<path fill="#2672EC" d="M119.573,40.061c0.001-0.001,0.004-0.141,0.006-0.142c0.855-0.854,11.89-25.167-0.912-34.052
	c-12.8-8.884-32.414-0.427-45.587,5.107c-1.851-0.407-2.219-0.365-3.056-0.365c-27.264,0-49.983,19.161-55.083,44.928
	c0.205-0.301,10.743-15.838,28.851-25.634c0,0-0.272,0.185-0.746,0.64c-0.041,0.04-0.078,0.041-0.123,0.084
	c-0.024,0.024-0.05,0.032-0.076,0.056c-3.95,3.797-19.375,19.075-26.913,33.242c-0.226,0.426-0.456,0.861-0.686,1.298
	c-0.466,0.854-0.92,1.707-1.345,2.563c0,0.01,0.001,0.019,0.002,0.029c-0.014,0.027-0.028,0.053-0.042,0.081
	C5.636,84.08-3.134,106.263,5.15,118.136c8.986,12.881,32.274,3.9,39.951-1.57l-0.342-0.188c7.595,3.836,16.173,6.327,25.265,6.327
	c24.295,0,44.984-15.706,52.811-36.706H93.829c-0.83,3-9.961,12.723-21.951,12.723S46.698,88,46.698,74h78.582h0.459
	c0.283-3,0.445-5.007,0.445-7.367C126.185,57.07,123.788,47.943,119.573,40.061z M41.082,114.364c0,0-18.368,10.525-27.218,1.675
	s3.455-30.38,3.455-30.38l0.017-0.036c4.453,12.103,12.941,22.252,23.848,28.798L41.082,114.364z M46.698,57
	c0-11,9.823-21.997,24.557-21.997S96.158,46,96.158,57H46.698z M117.828,36.755c-6.358-10.289-15.945-18.362-27.346-22.826
	c0.007-0.003,0.016-0.005,0.023-0.008c3.012-1.205,19.428-8.96,28.012-1.581s-0.681,24.411-0.681,24.411L117.828,36.755z"/>
</svg>
