<?xml version="1.0" encoding="utf-8"?>
<!-- Generator: Adobe Illustrator 17.1.0, SVG Export Plug-In . SVG Version: 6.00 Build 0)  -->
<!DOCTYPE svg PUBLIC "-//W3C//DTD SVG 1.0//EN" "http://www.w3.org/TR/2001/REC-SVG-20010904/DTD/svg10.dtd">
<svg version="1.0"
	 id="Layer_1" xmlns:cc="http://creativecommons.org/ns#" xmlns:svg="http://www.w3.org/2000/svg" xmlns:rdf="http://www.w3.org/1999/02/22-rdf-syntax-ns#" xmlns:sodipodi="http://sodipodi.sourceforge.net/DTD/sodipodi-0.dtd" xmlns:inkscape="http://www.inkscape.org/namespaces/inkscape" xmlns:dc="http://purl.org/dc/elements/1.1/" sodipodi:docname="Google_Chrome_2011_Logo.svg" inkscape:version="0.48.0 r9654"
	 xmlns="http://www.w3.org/2000/svg" xmlns:xlink="http://www.w3.org/1999/xlink" x="0px" y="0px" viewBox="0 0 170.218 170.277"
	 enable-background="new 0 0 170.218 170.277" xml:space="preserve">
<sodipodi:namedview  id="namedview70" fit-margin-top="0" objecttolerance="10" inkscape:zoom="0.82051792" borderopacity="1" guidetolerance="10" showgrid="false" pagecolor="#ffffff" inkscape:cx="324.1857" inkscape:cy="85.139249" gridtolerance="10" fit-margin-left="0" bordercolor="#666666" inkscape:pageshadow="2" inkscape:window-x="-4" inkscape:window-y="-4" inkscape:pageopacity="0" fit-margin-bottom="0" inkscape:window-height="712" inkscape:window-maximized="1" fit-margin-right="0" inkscape:current-layer="Layer_1" inkscape:window-width="1024">
	</sodipodi:namedview>
<circle id="circle47_1_" sodipodi:ry="83.805" sodipodi:cx="85.314003" sodipodi:rx="83.805" sodipodi:cy="85.712997" fill="#FFFFFF" cx="85.307" cy="85.452" r="80.851">
</circle>
<path id="path49_1_" inkscape:connector-curvature="0" fill-opacity="0.1" d="M136.757,100.152c0-28.416-23.035-51.451-51.45-51.451
	c-28.416,0-51.451,23.035-51.451,51.451h14.7c0-20.297,16.454-36.751,36.75-36.751s36.75,16.454,36.75,36.751"/>
<circle id="circle51_1_" sodipodi:ry="28.951" sodipodi:cx="89.123001" sodipodi:rx="28.951" sodipodi:cy="96.378998" fill-opacity="0.1" cx="88.982" cy="95.742" r="27.931">
</circle>
<linearGradient id="circle53_2_" gradientUnits="userSpaceOnUse" x1="-154.9227" y1="-433.4406" x2="-154.9227" y2="-432.7057" gradientTransform="matrix(82 0 0 82 12788.9707 35597.4492)">
	<stop  offset="0" style="stop-color:#81B4E0"/>
	<stop  offset="1" style="stop-color:#0C5A94"/>
</linearGradient>
<circle id="circle53_1_" sodipodi:ry="31.236" sodipodi:cx="85.314003" sodipodi:rx="31.236" sodipodi:cy="85.711998" fill="url(#circle53_2_)" cx="85.307" cy="85.451" r="30.135">
</circle>
<linearGradient id="path55_2_" gradientUnits="userSpaceOnUse" x1="-114.6207" y1="-119.3955" x2="-114.6207" y2="-52.5096" gradientTransform="matrix(1 0 0 1 202.5002 122.5259)">
	<stop  offset="0" style="stop-color:#F06B59"/>
	<stop  offset="1" style="stop-color:#DF2227"/>
</linearGradient>
<path id="path55_1_" inkscape:connector-curvature="0" fill="url(#path55_2_)" d="M158.808,48.7
	C138.572,7.988,89.164-8.613,48.451,11.622c-12.695,6.309-23.545,15.79-31.499,27.524l33.076,57.33
	c-6.091-19.361,4.667-39.995,24.027-46.085c3.405-1.071,6.949-1.641,10.518-1.69"/>
<linearGradient id="path57_2_" gradientUnits="userSpaceOnUse" x1="-179.4704" y1="21.4398" x2="-145.6607" y2="-34.4198" gradientTransform="matrix(1 0 0 1 202.5002 122.5259)">
	<stop  offset="0" style="stop-color:#388B41"/>
	<stop  offset="1" style="stop-color:#4CB749"/>
</linearGradient>
<path id="path57_1_" inkscape:connector-curvature="0" fill="url(#path57_2_)" d="M16.951,39.146
	c-25.316,37.764-15.225,88.9,22.539,114.216c11.684,7.833,25.18,12.541,39.201,13.675l34.546-58.8
	c-12.917,15.656-36.079,17.876-51.735,4.959c-5.318-4.387-9.294-10.18-11.476-16.719"/>
<linearGradient id="path59_2_" gradientUnits="userSpaceOnUse" x1="-66.2078" y1="27.3815" x2="-102.2228" y2="-59.3486" gradientTransform="matrix(1 0 0 1 202.5002 122.5259)">
	<stop  offset="0" style="stop-color:#E4B022"/>
	<stop  offset="0.3" style="stop-color:#FCD209"/>
</linearGradient>
<path id="path59_1_" inkscape:connector-curvature="0" fill="url(#path59_2_)" d="M78.692,167.038
	c45.335,3.427,84.864-30.546,88.292-75.881c1.106-14.628-1.716-29.284-8.177-42.456H84.572c20.295,0.094,36.674,16.623,36.58,36.919
	c-0.038,8.211-2.825,16.175-7.916,22.618"/>
<linearGradient id="path61_2_" gradientUnits="userSpaceOnUse" x1="-168.2763" y1="-28.2539" x2="-168.2763" y2="-87.0537" gradientTransform="matrix(1 0 0 1 202.5002 122.5259)">
	<stop  offset="0" style="stop-color:#000000;stop-opacity:0.15"/>
	<stop  offset="0.3" style="stop-color:#000000;stop-opacity:0.06"/>
	<stop  offset="1" style="stop-color:#000000;stop-opacity:0.03"/>
</linearGradient>
<path id="path61_1_" inkscape:connector-curvature="0" fill="url(#path61_2_)" d="M16.951,39.146l33.076,57.33
	c-2.45-8.246-1.93-17.09,1.469-24.991L18.421,36.941"/>
<linearGradient id="path63_2_" gradientUnits="userSpaceOnUse" x1="-87.1152" y1="-9.2657" x2="-127.5399" y2="31.894" gradientTransform="matrix(1 0 0 1 202.5002 122.5259)">
	<stop  offset="0" style="stop-color:#000000;stop-opacity:0.15"/>
	<stop  offset="0.3" style="stop-color:#000000;stop-opacity:0.06"/>
	<stop  offset="1" style="stop-color:#000000;stop-opacity:0.03"/>
</linearGradient>
<path id="path63_1_" inkscape:connector-curvature="0" fill="url(#path63_2_)" d="M78.692,167.038l34.546-58.8
	c-5.451,6.5-12.982,10.913-21.315,12.494l-14.701,46.305"/>
<linearGradient id="path65_2_" gradientUnits="userSpaceOnUse" x1="-87.7011" y1="2.5757" x2="-81.8213" y2="-55.487" gradientTransform="matrix(1 0 0 1 202.5002 122.5259)">
	<stop  offset="0" style="stop-color:#000000;stop-opacity:0.15"/>
	<stop  offset="0.3" style="stop-color:#000000;stop-opacity:0.06"/>
	<stop  offset="1" style="stop-color:#000000;stop-opacity:0.03"/>
</linearGradient>
<path id="path65_1_" inkscape:connector-curvature="0" fill="url(#path65_2_)" d="M158.808,48.7H84.572
	c11.181,0.052,21.732,5.191,28.665,13.966l47.04-11.76"/>
</svg>
