<?xml version="1.0" encoding="utf-8"?>
<!-- Generator: Adobe Illustrator 17.1.0, SVG Export Plug-In . SVG Version: 6.00 Build 0)  -->
<!DOCTYPE svg PUBLIC "-//W3C//DTD SVG 1.0//EN" "http://www.w3.org/TR/2001/REC-SVG-20010904/DTD/svg10.dtd">
<svg version="1.0" id="レイヤー_1" xmlns="http://www.w3.org/2000/svg" xmlns:xlink="http://www.w3.org/1999/xlink" x="0px"
	 y="0px" viewBox="0 0 128 128" enable-background="new 0 0 128 128" xml:space="preserve">
<g>
	
		<linearGradient id="SVGID_1_" gradientUnits="userSpaceOnUse" x1="0.3765" y1="128.1343" x2="0.3765" y2="127.0878" gradientTransform="matrix(118.2351 0 0 -118.2351 19.4866 15152.1016)">
		<stop  offset="0" style="stop-color:#19D7FF"/>
		<stop  offset="1" style="stop-color:#1E64F0"/>
	</linearGradient>
	<circle fill="url(#SVGID_1_)" cx="64" cy="64" r="61.868"/>
	<path fill="#FF0000" d="M106.258,21.466L58.752,58.752L69.8,69.8L106.258,21.466z"/>
	<path fill="#FFFFFF" d="M21.466,106.258l37.286-47.505L69.8,69.8L21.466,106.258z"/>
	<line fill="none" stroke="#FFFFFF" stroke-width="1.8" x1="64" y1="8.209" x2="64" y2="17.323"/>
	<line fill="none" stroke="#FFFFFF" stroke-width="1.8" x1="64" y1="110.401" x2="64" y2="119.515"/>
	<line fill="none" stroke="#FFFFFF" stroke-width="1.8" x1="73.667" y1="9.065" x2="72.092" y2="18.041"/>
	<line fill="none" stroke="#FFFFFF" stroke-width="1.8" x1="55.908" y1="109.683" x2="54.333" y2="118.659"/>
	<line fill="none" stroke="#FFFFFF" stroke-width="1.8" x1="83.03" y1="11.578" x2="79.909" y2="20.14"/>
	<line fill="none" stroke="#FFFFFF" stroke-width="1.8" x1="48.091" y1="107.583" x2="44.97" y2="116.145"/>
	<line fill="none" stroke="#FFFFFF" stroke-width="1.8" x1="54.333" y1="9.065" x2="55.908" y2="18.041"/>
	<line fill="none" stroke="#FFFFFF" stroke-width="1.8" x1="72.092" y1="109.683" x2="73.667" y2="118.659"/>
	<line fill="none" stroke="#FFFFFF" stroke-width="1.8" x1="44.97" y1="11.578" x2="48.091" y2="20.14"/>
	<line fill="none" stroke="#FFFFFF" stroke-width="1.8" x1="79.909" y1="107.583" x2="83.03" y2="116.145"/>
	<line fill="none" stroke="#FFFFFF" stroke-width="1.8" x1="36.16" y1="15.666" x2="40.744" y2="23.565"/>
	<line fill="none" stroke="#FFFFFF" stroke-width="1.8" x1="87.283" y1="104.159" x2="91.84" y2="112.058"/>
	<line fill="none" stroke="#FFFFFF" stroke-width="1.8" x1="28.233" y1="21.217" x2="34.088" y2="28.205"/>
	<line fill="none" stroke="#FFFFFF" stroke-width="1.8" x1="93.912" y1="99.519" x2="99.767" y2="106.506"/>
	<line fill="none" stroke="#FFFFFF" stroke-width="1.8" x1="21.356" y1="28.095" x2="28.343" y2="33.95"/>
	<line fill="none" stroke="#FFFFFF" stroke-width="1.8" x1="99.657" y1="93.774" x2="106.644" y2="99.629"/>
	<line fill="none" stroke="#FFFFFF" stroke-width="1.8" x1="15.804" y1="36.049" x2="23.703" y2="40.606"/>
	<line fill="none" stroke="#FFFFFF" stroke-width="1.8" x1="104.297" y1="87.145" x2="112.196" y2="91.702"/>
	<line fill="none" stroke="#FFFFFF" stroke-width="1.8" x1="11.716" y1="44.832" x2="20.278" y2="47.953"/>
	<line fill="none" stroke="#FFFFFF" stroke-width="1.8" x1="107.722" y1="79.771" x2="116.284" y2="82.892"/>
	<line fill="none" stroke="#FFFFFF" stroke-width="1.8" x1="9.203" y1="54.195" x2="18.179" y2="55.769"/>
	<line fill="none" stroke="#FFFFFF" stroke-width="1.8" x1="109.821" y1="71.954" x2="118.797" y2="73.529"/>
	<line fill="none" stroke="#FFFFFF" stroke-width="1.8" x1="8.347" y1="63.862" x2="17.461" y2="63.862"/>
	<line fill="none" stroke="#FFFFFF" stroke-width="1.8" x1="110.539" y1="63.862" x2="119.653" y2="63.862"/>
	<line fill="none" stroke="#FFFFFF" stroke-width="1.8" x1="9.203" y1="73.529" x2="18.179" y2="71.954"/>
	<line fill="none" stroke="#FFFFFF" stroke-width="1.8" x1="109.821" y1="55.769" x2="118.797" y2="54.195"/>
	<line fill="none" stroke="#FFFFFF" stroke-width="1.8" x1="11.716" y1="82.892" x2="20.278" y2="79.771"/>
	<line fill="none" stroke="#FFFFFF" stroke-width="1.8" x1="107.722" y1="47.953" x2="116.284" y2="44.832"/>
	<line fill="none" stroke="#FFFFFF" stroke-width="1.8" x1="15.804" y1="91.702" x2="23.703" y2="87.145"/>
	<line fill="none" stroke="#FFFFFF" stroke-width="1.8" x1="104.297" y1="40.606" x2="112.196" y2="36.049"/>
	<line fill="none" stroke="#FFFFFF" stroke-width="1.8" x1="21.356" y1="99.629" x2="28.343" y2="93.774"/>
	<line fill="none" stroke="#FFFFFF" stroke-width="1.8" x1="99.657" y1="33.95" x2="106.644" y2="28.095"/>
	<line fill="none" stroke="#FFFFFF" stroke-width="1.8" x1="28.233" y1="106.506" x2="34.088" y2="99.519"/>
	<line fill="none" stroke="#FFFFFF" stroke-width="1.8" x1="93.912" y1="28.205" x2="99.767" y2="21.217"/>
	<line fill="none" stroke="#FFFFFF" stroke-width="1.8" x1="36.16" y1="112.058" x2="40.744" y2="104.159"/>
	<line fill="none" stroke="#FFFFFF" stroke-width="1.8" x1="87.283" y1="23.565" x2="91.84" y2="15.666"/>
	<line fill="none" stroke="#FFFFFF" stroke-width="1.8" x1="59.139" y1="8.43" x2="59.581" y2="13.374"/>
	<line fill="none" stroke="#FFFFFF" stroke-width="1.8" x1="68.419" y1="114.35" x2="68.861" y2="119.294"/>
	<line fill="none" stroke="#FFFFFF" stroke-width="1.8" x1="49.583" y1="10.114" x2="50.881" y2="14.92"/>
	<line fill="none" stroke="#FFFFFF" stroke-width="1.8" x1="77.119" y1="112.804" x2="78.417" y2="117.609"/>
	<line fill="none" stroke="#FFFFFF" stroke-width="1.8" x1="40.468" y1="13.429" x2="42.567" y2="17.931"/>
	<line fill="none" stroke="#FFFFFF" stroke-width="1.8" x1="85.405" y1="109.793" x2="87.532" y2="114.295"/>
	<line fill="none" stroke="#FFFFFF" stroke-width="1.8" x1="32.072" y1="18.262" x2="34.917" y2="22.35"/>
	<line fill="none" stroke="#FFFFFF" stroke-width="1.8" x1="93.083" y1="105.374" x2="95.928" y2="109.462"/>
	<line fill="none" stroke="#FFFFFF" stroke-width="1.8" x1="24.642" y1="24.504" x2="28.15" y2="28.012"/>
	<line fill="none" stroke="#FFFFFF" stroke-width="1.8" x1="99.85" y1="99.712" x2="103.358" y2="103.22"/>
	<line fill="none" stroke="#FFFFFF" stroke-width="1.8" x1="18.4" y1="31.934" x2="22.488" y2="34.779"/>
	<line fill="none" stroke="#FFFFFF" stroke-width="1.8" x1="105.512" y1="92.945" x2="109.6" y2="95.79"/>
	<line fill="none" stroke="#FFFFFF" stroke-width="1.8" x1="13.567" y1="40.33" x2="18.069" y2="42.429"/>
	<line fill="none" stroke="#FFFFFF" stroke-width="1.8" x1="109.931" y1="85.267" x2="114.433" y2="87.394"/>
	<line fill="none" stroke="#FFFFFF" stroke-width="1.8" x1="10.253" y1="49.445" x2="15.058" y2="50.743"/>
	<line fill="none" stroke="#FFFFFF" stroke-width="1.8" x1="112.942" y1="76.981" x2="117.747" y2="78.279"/>
	<line fill="none" stroke="#FFFFFF" stroke-width="1.8" x1="8.568" y1="59.001" x2="13.512" y2="59.443"/>
	<line fill="none" stroke="#FFFFFF" stroke-width="1.8" x1="114.488" y1="68.281" x2="119.432" y2="68.723"/>
	<line fill="none" stroke="#FFFFFF" stroke-width="1.8" x1="8.568" y1="68.723" x2="13.512" y2="68.281"/>
	<line fill="none" stroke="#FFFFFF" stroke-width="1.8" x1="114.488" y1="59.443" x2="119.432" y2="59.001"/>
	<line fill="none" stroke="#FFFFFF" stroke-width="1.8" x1="10.253" y1="78.279" x2="15.058" y2="76.981"/>
	<line fill="none" stroke="#FFFFFF" stroke-width="1.8" x1="112.942" y1="50.743" x2="117.747" y2="49.445"/>
	<line fill="none" stroke="#FFFFFF" stroke-width="1.8" x1="13.567" y1="87.394" x2="18.069" y2="85.295"/>
	<line fill="none" stroke="#FFFFFF" stroke-width="1.8" x1="109.931" y1="42.429" x2="114.433" y2="40.33"/>
	<line fill="none" stroke="#FFFFFF" stroke-width="1.8" x1="18.4" y1="95.79" x2="22.488" y2="92.945"/>
	<line fill="none" stroke="#FFFFFF" stroke-width="1.8" x1="105.512" y1="34.779" x2="109.6" y2="31.934"/>
	<line fill="none" stroke="#FFFFFF" stroke-width="1.8" x1="32.072" y1="109.462" x2="34.917" y2="105.374"/>
	<line fill="none" stroke="#FFFFFF" stroke-width="1.8" x1="93.056" y1="22.35" x2="95.928" y2="18.262"/>
	<line fill="none" stroke="#FFFFFF" stroke-width="1.8" x1="40.468" y1="114.295" x2="42.595" y2="109.793"/>
	<line fill="none" stroke="#FFFFFF" stroke-width="1.8" x1="85.405" y1="17.931" x2="87.532" y2="13.429"/>
	<line fill="none" stroke="#FFFFFF" stroke-width="1.8" x1="49.583" y1="117.609" x2="50.881" y2="112.804"/>
	<line fill="none" stroke="#FFFFFF" stroke-width="1.8" x1="77.119" y1="14.92" x2="78.417" y2="10.114"/>
	<line fill="none" stroke="#FFFFFF" stroke-width="1.8" x1="59.139" y1="119.294" x2="59.581" y2="114.35"/>
	<line fill="none" stroke="#FFFFFF" stroke-width="1.8" x1="68.419" y1="13.374" x2="68.861" y2="8.43"/>
</g>
</svg>
