<?xml version="1.0" encoding="utf-8"?>
<!-- Generator: Adobe Illustrator 17.1.0, SVG Export Plug-In . SVG Version: 6.00 Build 0)  -->
<!DOCTYPE svg PUBLIC "-//W3C//DTD SVG 1.1//EN" "http://www.w3.org/Graphics/SVG/1.1/DTD/svg11.dtd">
<svg version="1.1" id="レイヤー_1" xmlns="http://www.w3.org/2000/svg" xmlns:xlink="http://www.w3.org/1999/xlink" x="0px"
	 y="0px" viewBox="0 0 128 128" enable-background="new 0 0 128 128" xml:space="preserve">
<g>
	<path fill="#008920" d="M56,31.739c0-3.039,0-7.372,0-9.761c0-3.931,1.741-5.603,7.208-7.953L62.6,11.45
		c-9.308,0.949-9.6,9.399-9.6,9.399v11.506L56,31.739z"/>
	<path fill="#008920" d="M38,35.224c0-3.467,0-11.541,0-17.855c0-4.925,2.747-6.665,4.686-7.862
		c3.217-1.987,8.194-3.637,14.588-3.841c4.565-0.145,6.517,3.4,7.433,5.964C65.125,12.803,65,14.669,65,15.915v14.185l3-0.615
		c0-3.534,0-10.555,0-15.414C68,7.338,62.769,3,56.489,3c-4.157,0-7.434,0.723-12.812,2.666C38.3,7.609,35,11.992,35,18.86v16.979
		L38,35.224z"/>
	<path fill="#008920" d="M75.737,11.224c1.484,0,6.114,2.156,6.168,4.914c0.04,2.035,0.23,7.984,0.322,10.824l2.954-0.558
		c0.044-2.932,0.098-8.236-0.034-10.435c-0.161-2.669-4.368-7.456-7.67-7.456c-6.518,0-7.953,0.904-7.953,0.904l0.96,2.485
		C70.484,11.901,73.728,11.224,75.737,11.224z"/>
	<path fill="#008920" d="M97.863,26.959L12,43.192v64.457L97.863,125L115,118.629v-85.4L97.863,26.959z M51,93.131l-19-2.698V75h19
		V93.131z M51,74H32V57.9l19-2.857V74z M76,96.578l-24-3.297V75h24V96.578z M76,74H52V54.885l24-3.491V74z"/>
</g>
<g>
</g>
<g>
</g>
<g>
</g>
<g>
</g>
<g>
</g>
<g>
</g>
<g>
</g>
<g>
</g>
<g>
</g>
<g>
</g>
<g>
</g>
<g>
</g>
<g>
</g>
<g>
</g>
<g>
</g>
</svg>
