<?xml version="1.0" encoding="utf-8"?>
<!-- Generator: Adobe Illustrator 17.0.0, SVG Export Plug-In . SVG Version: 6.00 Build 0)  -->
<!DOCTYPE svg PUBLIC "-//W3C//DTD SVG 1.1//EN" "http://www.w3.org/Graphics/SVG/1.1/DTD/svg11.dtd">
<svg version="1.1" id="レイヤー_1" xmlns="http://www.w3.org/2000/svg" xmlns:xlink="http://www.w3.org/1999/xlink" x="0px"
	 y="0px" width="600px" height="300px" viewBox="0 0 600 300" enable-background="new 0 0 600 300" xml:space="preserve">
<g>
	<g>
		<path fill="#555555" d="M218.815,182.453h16.508v1.224h-15.154v12.141h12.752v1.223h-12.752v14.237h-1.354V182.453z"/>
		<path fill="#555555" d="M238.074,179.746h9.302v25.767c0,3.378,1.557,5.065,4.673,5.065c0.699,0,1.404-0.094,2.118-0.283
			c0.713-0.189,1.507-0.487,2.38-0.896l0.524,1.092c-0.845,0.32-1.653,0.619-2.424,0.896c-0.772,0.276-1.667,0.415-2.686,0.415
			c-1.893,0-3.348-0.503-4.367-1.507c-1.02-1.005-1.528-2.687-1.528-5.044v-24.282h-7.992V179.746z"/>
		<path fill="#555555" d="M259.866,206.168c0-1.164,0.313-2.184,0.939-3.058c0.626-0.873,1.594-1.622,2.904-2.249
			c1.31-0.626,2.999-1.149,5.066-1.572c2.067-0.422,4.542-0.764,7.424-1.026c0-0.902-0.102-1.79-0.306-2.664
			c-0.204-0.873-0.546-1.638-1.026-2.293c-0.48-0.654-1.143-1.186-1.987-1.594c-0.845-0.407-1.893-0.611-3.145-0.611
			c-0.845,0-1.66,0.095-2.446,0.284s-1.536,0.437-2.249,0.742c-0.714,0.306-1.361,0.633-1.943,0.982
			c-0.583,0.35-1.078,0.67-1.485,0.961l-0.699-1.048c0.378-0.291,0.874-0.618,1.485-0.982s1.31-0.706,2.096-1.026
			s1.638-0.59,2.555-0.809c0.917-0.218,1.841-0.327,2.773-0.327c1.397,0,2.583,0.211,3.559,0.633
			c0.976,0.423,1.769,0.998,2.38,1.726s1.055,1.565,1.332,2.511c0.276,0.946,0.415,1.943,0.415,2.992v13.538h-1.136l-0.175-3.231
			h-0.087c-0.612,0.495-1.274,0.968-1.987,1.419c-0.714,0.452-1.449,0.852-2.206,1.201c-0.757,0.35-1.536,0.626-2.336,0.83
			c-0.801,0.203-1.594,0.306-2.38,0.306c-0.932,0-1.834-0.109-2.708-0.328c-0.874-0.218-1.653-0.553-2.336-1.004
			c-0.685-0.451-1.238-1.033-1.66-1.747C260.077,208.01,259.866,207.158,259.866,206.168z M261.264,206.124
			c0,0.815,0.175,1.507,0.524,2.074c0.349,0.568,0.808,1.026,1.375,1.376s1.208,0.604,1.922,0.765
			c0.713,0.16,1.448,0.239,2.205,0.239c2.766,0,5.736-1.338,8.909-4.018v-7.162c-2.824,0.262-5.19,0.59-7.097,0.982
			c-1.907,0.394-3.443,0.867-4.607,1.42c-1.165,0.553-1.995,1.187-2.489,1.899C261.511,204.414,261.264,205.222,261.264,206.124z"/>
		<path fill="#555555" d="M281.353,215.339c0-0.815,0.313-1.675,0.939-2.576c0.625-0.903,1.507-1.718,2.642-2.446v-0.175
			c-0.524-0.232-1.02-0.626-1.485-1.179c-0.466-0.553-0.699-1.267-0.699-2.141c0-0.669,0.211-1.346,0.633-2.03
			c0.422-0.684,1.055-1.317,1.9-1.899v-0.175c-0.67-0.582-1.245-1.311-1.725-2.184c-0.48-0.874-0.721-1.95-0.721-3.232
			c0-1.048,0.196-2.022,0.589-2.926c0.393-0.902,0.939-1.688,1.638-2.358c0.699-0.669,1.507-1.193,2.424-1.572
			c0.917-0.378,1.9-0.567,2.948-0.567c1.077,0,2.009,0.175,2.795,0.524h8.735v1.223h-6.639c0.699,0.67,1.325,1.478,1.878,2.424
			c0.553,0.946,0.83,2.03,0.83,3.253c0,1.049-0.196,2.024-0.589,2.927s-0.939,1.681-1.638,2.336s-1.507,1.165-2.424,1.528
			c-0.917,0.365-1.9,0.546-2.948,0.546c-0.67,0-1.354-0.087-2.053-0.262s-1.383-0.437-2.053-0.786
			c-0.67,0.408-1.201,0.881-1.594,1.42s-0.59,1.099-0.59,1.681c0,1.078,0.458,1.864,1.375,2.358
			c0.917,0.496,2.118,0.742,3.603,0.742h5.372c2.649,0,4.556,0.357,5.721,1.07c1.164,0.713,1.747,1.9,1.747,3.56
			c0,0.873-0.256,1.731-0.765,2.576c-0.51,0.845-1.23,1.602-2.162,2.271c-0.932,0.669-2.068,1.208-3.407,1.616
			c-1.339,0.407-2.839,0.611-4.498,0.611c-3.319,0-5.78-0.575-7.381-1.726C282.153,218.621,281.353,217.144,281.353,215.339z
			 M282.75,215.514c0,1.339,0.662,2.468,1.987,3.385c1.324,0.917,3.37,1.375,6.136,1.375c1.514,0,2.875-0.167,4.083-0.502
			c1.208-0.335,2.227-0.779,3.057-1.332c0.83-0.554,1.463-1.172,1.899-1.855c0.437-0.685,0.655-1.376,0.655-2.075
			c0-1.252-0.474-2.118-1.419-2.599c-0.946-0.479-2.38-0.72-4.302-0.72h-5.284c-0.496,0-1.026-0.029-1.594-0.088
			c-0.568-0.058-1.099-0.159-1.594-0.306c-1.369,0.728-2.315,1.492-2.839,2.293S282.75,214.698,282.75,215.514z M290.437,203.416
			c0.844,0,1.645-0.152,2.402-0.458c0.757-0.306,1.419-0.728,1.987-1.267c0.567-0.539,1.011-1.18,1.332-1.922s0.48-1.564,0.48-2.468
			c0-0.901-0.16-1.731-0.48-2.489c-0.32-0.757-0.764-1.411-1.332-1.965c-0.568-0.553-1.23-0.982-1.987-1.288
			c-0.757-0.306-1.558-0.459-2.402-0.459c-0.845,0-1.646,0.153-2.402,0.459c-0.757,0.306-1.419,0.735-1.987,1.288
			c-0.568,0.554-1.012,1.208-1.332,1.965c-0.321,0.758-0.48,1.588-0.48,2.489c0,0.903,0.16,1.726,0.48,2.468
			c0.32,0.742,0.764,1.383,1.332,1.922s1.229,0.961,1.987,1.267C288.792,203.264,289.592,203.416,290.437,203.416z"/>
		<path fill="#555555" d="M306.77,190.402h1.135l0.176,5.24h0.088c1.135-1.659,2.547-3.035,4.234-4.127
			c1.689-1.092,3.611-1.638,5.766-1.638c0.67,0,1.369,0.059,2.096,0.175c0.729,0.116,1.428,0.35,2.098,0.698l-0.35,1.223
			c-0.787-0.29-1.449-0.494-1.988-0.611c-0.539-0.115-1.215-0.175-2.029-0.175c-1.807,0-3.531,0.51-5.176,1.529
			s-3.225,2.751-4.738,5.196v13.364h-1.311V190.402z"/>
		<path fill="#555555" d="M325.374,206.168c0-1.164,0.313-2.184,0.939-3.058c0.625-0.873,1.594-1.622,2.904-2.249
			c1.31-0.626,2.998-1.149,5.065-1.572c2.067-0.422,4.542-0.764,7.425-1.026c0-0.902-0.103-1.79-0.306-2.664
			c-0.204-0.873-0.546-1.638-1.026-2.293c-0.48-0.654-1.144-1.186-1.987-1.594c-0.845-0.407-1.893-0.611-3.145-0.611
			c-0.845,0-1.659,0.095-2.445,0.284s-1.536,0.437-2.249,0.742c-0.714,0.306-1.361,0.633-1.943,0.982
			c-0.583,0.35-1.078,0.67-1.485,0.961l-0.699-1.048c0.379-0.291,0.874-0.618,1.485-0.982s1.311-0.706,2.097-1.026
			s1.638-0.59,2.555-0.809c0.917-0.218,1.841-0.327,2.773-0.327c1.397,0,2.583,0.211,3.559,0.633
			c0.976,0.423,1.769,0.998,2.381,1.726c0.611,0.728,1.055,1.565,1.332,2.511c0.275,0.946,0.414,1.943,0.414,2.992v13.538h-1.135
			l-0.175-3.231h-0.088c-0.611,0.495-1.273,0.968-1.987,1.419c-0.713,0.452-1.448,0.852-2.205,1.201
			c-0.758,0.35-1.536,0.626-2.336,0.83c-0.802,0.203-1.595,0.306-2.381,0.306c-0.932,0-1.834-0.109-2.707-0.328
			c-0.874-0.218-1.653-0.553-2.337-1.004c-0.685-0.451-1.238-1.033-1.659-1.747C325.585,208.01,325.374,207.158,325.374,206.168z
			 M326.771,206.124c0,0.815,0.175,1.507,0.524,2.074c0.35,0.568,0.808,1.026,1.376,1.376c0.567,0.35,1.207,0.604,1.921,0.765
			s1.448,0.239,2.206,0.239c2.766,0,5.735-1.338,8.909-4.018v-7.162c-2.824,0.262-5.19,0.59-7.097,0.982
			c-1.907,0.394-3.443,0.867-4.607,1.42c-1.165,0.553-1.995,1.187-2.489,1.899C327.019,204.414,326.771,205.222,326.771,206.124z"/>
		<path fill="#555555" d="M353.149,191.625h-6.42v-1.049l6.42-0.174l0.175-6.114h1.136v6.114h11.398v1.223H354.46v12.141
			c0,1.048,0.087,1.995,0.262,2.839c0.175,0.845,0.48,1.558,0.917,2.14c0.437,0.583,1.041,1.034,1.813,1.354
			s1.769,0.479,2.992,0.479c1.164,0,2.205-0.102,3.122-0.306c0.917-0.203,1.798-0.48,2.643-0.829l0.437,1.048
			c-0.933,0.408-1.973,0.729-3.123,0.961s-2.205,0.35-3.166,0.35c-1.397,0-2.555-0.197-3.472-0.59
			c-0.917-0.394-1.653-0.953-2.206-1.682c-0.553-0.728-0.946-1.594-1.179-2.599c-0.233-1.004-0.35-2.118-0.35-3.341V191.625z"/>
		<path fill="#555555" d="M368.348,200.883c0-1.688,0.29-3.216,0.873-4.585c0.582-1.368,1.36-2.525,2.337-3.472
			c0.975-0.946,2.089-1.675,3.341-2.185c1.251-0.509,2.533-0.764,3.843-0.764c1.397,0,2.664,0.218,3.8,0.655
			c1.136,0.437,2.11,1.069,2.926,1.899c0.814,0.83,1.441,1.834,1.878,3.014c0.437,1.179,0.655,2.526,0.655,4.039
			c0,0.233,0,0.459,0,0.678c0,0.218-0.029,0.458-0.087,0.72h-18.168c0,1.398,0.232,2.687,0.698,3.865
			c0.466,1.18,1.114,2.206,1.943,3.079c0.83,0.873,1.835,1.551,3.014,2.031c1.18,0.48,2.496,0.72,3.952,0.72
			s2.766-0.218,3.931-0.654c1.164-0.438,2.242-1.005,3.231-1.703l0.612,1.135c-0.467,0.292-0.954,0.583-1.464,0.874
			s-1.085,0.553-1.725,0.786c-0.641,0.233-1.34,0.422-2.097,0.567s-1.615,0.219-2.576,0.219c-1.485,0-2.89-0.248-4.215-0.743
			c-1.325-0.494-2.482-1.215-3.472-2.161c-0.99-0.946-1.776-2.089-2.358-3.429C368.638,204.13,368.348,202.602,368.348,200.883z
			 M386.689,199.748c0-2.883-0.735-5.045-2.205-6.485c-1.471-1.441-3.385-2.162-5.743-2.162c-1.106,0-2.169,0.204-3.188,0.611
			c-1.02,0.408-1.938,0.982-2.752,1.726c-0.815,0.742-1.492,1.645-2.03,2.707c-0.539,1.063-0.881,2.265-1.026,3.604H386.689z"/>
	</g>
	<path fill="#1A60ED" d="M249.526,102.515c-0.439,2.687-0.681,5.441-0.681,8.257c0,28.252,22.903,51.295,51.155,51.295
		s51.155-22.833,51.155-51.085c0-10.162-3.311-21.545-8.057-30.47c-1.713-3.221-3.73-6.377-6.258-9.025
		c-0.367,11.563-6.035,22.015-6.035,22.015c2.019-6.149,2.913-10.307,2.52-15.405c-7.927-6.646-19.544-14.704-24.237-24.602
		c-1.65-3.48-2.073-7.4-2.74-11.148c0,0-7.173,12.669-18.67,20.723c-1.677,1.265-21.101,13.645-21.532,21.47
		c0,0-3.415-3.565-4.089-8.048c-5.798,6.472-9.991,14.34-11.956,23.055L249.526,102.515z M322.931,144.827
		c-0.398,0.799-0.852,1.575-1.342,2.32c-1.128,1.718-2.563,3.298-4.101,4.661c-2.279,2.019-4.757,3.677-7.607,4.776
		c-3.16,1.219-6.533,1.841-9.912,1.87c-4.293,0.037-8.598-0.926-12.484-2.723c-5.176-2.393-10.578-5.798-13.245-11.054
		c-0.732-1.443-1.332-3.089-1.661-4.675c-0.144-0.691-0.255-1.39-0.321-2.093c-0.04-0.429-0.013-0.934,0.018-1.347
		c2.915,3.131,6.771,6.107,10.976,7.148c0.807,0.2,1.632,0.316,2.462,0.367c0.452,0.028,2.187,0.305,2.524,0.02
		c0.01-0.008,9.274-7.85,11.762-25.577c0,0,15.061,17.404,24.396,11.057c-0.001,0.07,0.293,0.92,0.319,1.019
		c0.14,0.527,0.288,1.053,0.368,1.592c0.17,1.139,0.215,2.307,0.177,3.458C325.155,138.851,324.36,141.957,322.931,144.827z"/>
	<g>
		<path fill="#555555" d="M241.284,236.165h-2.616l-0.692,2.198h-0.935l2.429-7.211h1.033l2.429,7.211h-0.967L241.284,236.165z
			 M241.053,235.429l-0.341-1.1c-0.125-0.402-0.246-0.804-0.363-1.203s-0.234-0.809-0.352-1.226h-0.044
			c-0.117,0.417-0.235,0.826-0.352,1.226c-0.118,0.399-0.238,0.801-0.363,1.203l-0.341,1.1H241.053z"/>
		<path fill="#555555" d="M248.725,236.747c0.212,0.323,0.451,0.561,0.714,0.715c0.264,0.154,0.535,0.23,0.813,0.23
			c0.521,0,0.899-0.137,1.138-0.412c0.238-0.274,0.357-0.709,0.357-1.302v-4.067h-3.023v-0.77h3.935v4.913
			c0,0.338-0.041,0.654-0.121,0.951s-0.214,0.555-0.401,0.774c-0.187,0.221-0.433,0.395-0.736,0.522
			c-0.304,0.128-0.68,0.192-1.127,0.192c-0.411,0-0.808-0.096-1.192-0.286s-0.702-0.494-0.951-0.912L248.725,236.747z"/>
		<path fill="#555555" d="M253.408,236.979c0-0.301,0.072-0.563,0.214-0.786c0.143-0.224,0.37-0.416,0.682-0.577
			s0.712-0.293,1.204-0.396c0.491-0.103,1.081-0.184,1.77-0.242c-0.007-0.183-0.037-0.355-0.088-0.517s-0.132-0.302-0.242-0.423
			s-0.255-0.218-0.434-0.291c-0.18-0.073-0.397-0.11-0.654-0.11c-0.352,0-0.688,0.068-1.011,0.203
			c-0.322,0.136-0.608,0.28-0.857,0.435l-0.352-0.615c0.132-0.088,0.288-0.178,0.467-0.27c0.179-0.092,0.37-0.174,0.571-0.247
			c0.202-0.073,0.416-0.134,0.643-0.182s0.458-0.071,0.693-0.071c0.732,0,1.276,0.199,1.632,0.599
			c0.355,0.399,0.533,0.933,0.533,1.6v3.275h-0.736l-0.077-0.726h-0.033c-0.301,0.234-0.632,0.437-0.995,0.604
			c-0.363,0.169-0.735,0.253-1.116,0.253c-0.25,0-0.484-0.035-0.704-0.104s-0.412-0.168-0.577-0.297
			c-0.165-0.128-0.295-0.285-0.39-0.473C253.456,237.435,253.408,237.22,253.408,236.979z M254.287,236.912
			c0,0.154,0.033,0.284,0.099,0.391s0.152,0.194,0.258,0.264c0.106,0.069,0.231,0.121,0.374,0.154
			c0.143,0.032,0.292,0.049,0.445,0.049c0.308,0,0.61-0.067,0.907-0.203s0.599-0.331,0.907-0.588v-1.407
			c-0.571,0.044-1.049,0.106-1.434,0.187c-0.385,0.081-0.693,0.178-0.923,0.292c-0.231,0.113-0.394,0.241-0.489,0.385
			C254.335,236.577,254.287,236.736,254.287,236.912z"/>
		<path fill="#555555" d="M258.354,233.021h0.913l1.231,3.033c0.11,0.271,0.214,0.537,0.313,0.797
			c0.099,0.261,0.196,0.519,0.292,0.775h0.044c0.095-0.257,0.188-0.515,0.28-0.775c0.091-0.26,0.192-0.525,0.302-0.797l1.231-3.033
			h0.869l-2.209,5.342h-1.011L258.354,233.021z"/>
		<path fill="#555555" d="M263.96,236.979c0-0.301,0.072-0.563,0.214-0.786c0.143-0.224,0.37-0.416,0.682-0.577
			s0.712-0.293,1.204-0.396c0.491-0.103,1.081-0.184,1.77-0.242c-0.007-0.183-0.037-0.355-0.088-0.517s-0.132-0.302-0.242-0.423
			s-0.255-0.218-0.434-0.291c-0.18-0.073-0.397-0.11-0.654-0.11c-0.352,0-0.688,0.068-1.011,0.203
			c-0.322,0.136-0.608,0.28-0.857,0.435l-0.352-0.615c0.132-0.088,0.288-0.178,0.467-0.27c0.179-0.092,0.37-0.174,0.571-0.247
			c0.202-0.073,0.416-0.134,0.643-0.182s0.458-0.071,0.693-0.071c0.732,0,1.276,0.199,1.632,0.599
			c0.355,0.399,0.533,0.933,0.533,1.6v3.275h-0.736l-0.077-0.726h-0.033c-0.301,0.234-0.632,0.437-0.995,0.604
			c-0.363,0.169-0.735,0.253-1.116,0.253c-0.25,0-0.484-0.035-0.704-0.104s-0.412-0.168-0.577-0.297
			c-0.165-0.128-0.295-0.285-0.39-0.473C264.008,237.435,263.96,237.22,263.96,236.979z M264.839,236.912
			c0,0.154,0.033,0.284,0.099,0.391s0.152,0.194,0.258,0.264c0.106,0.069,0.231,0.121,0.374,0.154
			c0.143,0.032,0.292,0.049,0.445,0.049c0.308,0,0.61-0.067,0.907-0.203s0.599-0.331,0.907-0.588v-1.407
			c-0.571,0.044-1.049,0.106-1.434,0.187c-0.385,0.081-0.693,0.178-0.923,0.292c-0.231,0.113-0.394,0.241-0.489,0.385
			C264.887,236.577,264.839,236.736,264.839,236.912z"/>
		<path fill="#555555" d="M269.632,236.791c0.271,0.271,0.586,0.489,0.945,0.654c0.359,0.165,0.736,0.247,1.132,0.247
			c0.513,0,0.909-0.107,1.188-0.324c0.278-0.216,0.417-0.5,0.417-0.852c0-0.183-0.033-0.339-0.099-0.467
			c-0.066-0.129-0.158-0.238-0.275-0.33c-0.118-0.092-0.255-0.174-0.412-0.247c-0.158-0.073-0.328-0.15-0.511-0.231l-1.033-0.45
			c-0.184-0.073-0.367-0.161-0.55-0.264s-0.35-0.228-0.5-0.374c-0.15-0.146-0.273-0.32-0.368-0.522
			c-0.095-0.201-0.143-0.434-0.143-0.697c0-0.271,0.059-0.524,0.176-0.759s0.28-0.438,0.489-0.61c0.209-0.172,0.458-0.306,0.748-0.4
			c0.289-0.096,0.606-0.144,0.951-0.144c0.454,0,0.872,0.083,1.253,0.247c0.381,0.165,0.704,0.38,0.967,0.644l-0.483,0.594
			c-0.235-0.213-0.493-0.38-0.775-0.5c-0.282-0.121-0.603-0.182-0.962-0.182c-0.439,0-0.788,0.094-1.044,0.28
			c-0.256,0.187-0.384,0.445-0.384,0.774c0,0.177,0.038,0.324,0.115,0.445s0.176,0.228,0.297,0.319
			c0.121,0.092,0.258,0.17,0.412,0.236c0.154,0.065,0.308,0.132,0.461,0.197l1.011,0.44c0.22,0.088,0.427,0.188,0.621,0.302
			c0.194,0.113,0.363,0.246,0.506,0.396c0.143,0.15,0.256,0.326,0.341,0.528c0.084,0.201,0.126,0.434,0.126,0.697
			c0,0.286-0.059,0.554-0.176,0.803s-0.286,0.467-0.505,0.654c-0.22,0.187-0.487,0.333-0.802,0.439
			c-0.315,0.106-0.671,0.159-1.066,0.159c-0.528,0-1.013-0.096-1.457-0.286s-0.83-0.45-1.16-0.78L269.632,236.791z"/>
		<path fill="#555555" d="M274.501,235.703c0-0.446,0.079-0.845,0.236-1.192c0.157-0.348,0.372-0.644,0.643-0.885
			c0.271-0.242,0.588-0.425,0.951-0.55c0.363-0.124,0.746-0.187,1.148-0.187c0.44,0,0.819,0.076,1.138,0.23
			c0.319,0.154,0.588,0.337,0.808,0.55l-0.451,0.582c-0.22-0.19-0.449-0.341-0.687-0.45c-0.238-0.11-0.497-0.165-0.775-0.165
			c-0.308,0-0.59,0.05-0.846,0.148c-0.257,0.099-0.475,0.24-0.654,0.423c-0.18,0.184-0.32,0.401-0.423,0.654
			c-0.103,0.253-0.154,0.533-0.154,0.841s0.05,0.587,0.148,0.836c0.099,0.249,0.238,0.463,0.418,0.643
			c0.179,0.18,0.396,0.318,0.648,0.418c0.253,0.099,0.533,0.148,0.841,0.148c0.33,0,0.632-0.064,0.907-0.192
			s0.526-0.288,0.753-0.479l0.396,0.583c-0.293,0.264-0.621,0.469-0.984,0.615s-0.742,0.22-1.138,0.22
			c-0.418,0-0.804-0.063-1.16-0.187c-0.355-0.125-0.665-0.307-0.929-0.544c-0.264-0.238-0.469-0.531-0.616-0.88
			C274.575,236.537,274.501,236.143,274.501,235.703z"/>
		<path fill="#555555" d="M280.503,233.021h0.747l0.077,1.264h0.033c0.278-0.433,0.621-0.772,1.027-1.022
			c0.407-0.249,0.859-0.373,1.357-0.373c0.198,0,0.379,0.017,0.544,0.049c0.165,0.033,0.332,0.09,0.5,0.171l-0.187,0.78
			c-0.19-0.066-0.352-0.113-0.483-0.143s-0.304-0.044-0.517-0.044c-0.403,0-0.79,0.115-1.16,0.346
			c-0.37,0.231-0.716,0.625-1.039,1.182v3.133h-0.901V233.021z"/>
		<path fill="#555555" d="M285.164,233.021h3.386v5.342h-0.901v-4.605h-2.484V233.021z M288,231.922
			c-0.213,0-0.387-0.062-0.522-0.187c-0.136-0.125-0.204-0.293-0.204-0.506c0-0.212,0.068-0.383,0.204-0.511
			c0.135-0.129,0.309-0.192,0.522-0.192c0.205,0,0.377,0.063,0.517,0.192c0.139,0.128,0.209,0.299,0.209,0.511
			c0,0.213-0.07,0.381-0.209,0.506S288.205,231.922,288,231.922z"/>
		<path fill="#555555" d="M291.374,238.813v1.803h-0.901v-7.595h0.747l0.077,0.682h0.033c0.249-0.234,0.537-0.429,0.863-0.583
			c0.326-0.154,0.654-0.23,0.983-0.23c0.359,0,0.676,0.063,0.951,0.192c0.274,0.128,0.505,0.312,0.692,0.549
			c0.187,0.238,0.328,0.524,0.423,0.857c0.095,0.334,0.143,0.709,0.143,1.127c0,0.454-0.066,0.859-0.198,1.215
			s-0.31,0.657-0.533,0.906c-0.224,0.25-0.482,0.438-0.775,0.566s-0.601,0.192-0.923,0.192c-0.249,0-0.519-0.061-0.808-0.182
			c-0.29-0.12-0.555-0.291-0.797-0.511L291.374,238.813z M291.374,237.11c0.257,0.228,0.513,0.389,0.77,0.483
			c0.256,0.096,0.477,0.143,0.66,0.143c0.483,0,0.879-0.187,1.187-0.561c0.308-0.373,0.462-0.894,0.462-1.561
			c0-0.293-0.029-0.561-0.088-0.803c-0.059-0.241-0.148-0.448-0.27-0.621c-0.121-0.172-0.277-0.306-0.467-0.4
			c-0.19-0.096-0.417-0.144-0.681-0.144c-0.235,0-0.486,0.064-0.753,0.192c-0.268,0.129-0.541,0.332-0.819,0.61V237.11z"/>
		<path fill="#555555" d="M296.99,233.758h-1.506v-0.682l1.539-0.055l0.121-1.495h0.748v1.495h2.616v0.736h-2.616v2.539
			c0,0.242,0.022,0.452,0.066,0.632s0.117,0.332,0.22,0.456c0.103,0.125,0.242,0.219,0.417,0.28
			c0.176,0.063,0.392,0.094,0.648,0.094s0.487-0.022,0.692-0.066s0.403-0.103,0.594-0.176l0.187,0.66
			c-0.235,0.088-0.499,0.163-0.792,0.225c-0.293,0.063-0.586,0.094-0.879,0.094c-0.389,0-0.714-0.053-0.979-0.159
			c-0.264-0.106-0.474-0.257-0.632-0.451c-0.158-0.193-0.271-0.427-0.341-0.697c-0.07-0.271-0.104-0.572-0.104-0.901V233.758z"/>
		<path fill="#555555" d="M306.146,231.152h0.924v4.507c0,0.374,0.038,0.69,0.115,0.951c0.077,0.26,0.183,0.469,0.318,0.626
			c0.136,0.158,0.295,0.273,0.479,0.347c0.183,0.073,0.385,0.109,0.604,0.109s0.421-0.036,0.604-0.109
			c0.183-0.073,0.345-0.188,0.483-0.347c0.14-0.157,0.248-0.366,0.324-0.626c0.077-0.261,0.115-0.577,0.115-0.951v-4.507h0.891
			v4.485c0,0.52-0.061,0.96-0.182,1.318c-0.12,0.359-0.287,0.654-0.5,0.885c-0.212,0.231-0.467,0.397-0.764,0.5
			s-0.621,0.154-0.973,0.154s-0.678-0.052-0.979-0.154s-0.559-0.269-0.774-0.5c-0.217-0.23-0.385-0.525-0.506-0.885
			c-0.121-0.358-0.182-0.799-0.182-1.318V231.152z"/>
		<path fill="#555555" d="M311.597,237.583h1.792v-5.661h-1.792v-0.77h4.507v0.77h-1.792v5.661h1.792v0.78h-4.507V237.583z"/>
		<path fill="#555555" d="M321.995,230.537h2.726v6.101c0,0.396,0.094,0.68,0.28,0.852c0.187,0.173,0.441,0.259,0.764,0.259
			c0.293,0,0.631-0.084,1.012-0.253l0.23,0.682c-0.241,0.088-0.469,0.163-0.682,0.225c-0.212,0.063-0.465,0.094-0.758,0.094
			c-0.571,0-1.006-0.161-1.303-0.483s-0.445-0.803-0.445-1.44v-5.298h-1.824V230.537z"/>
		<path fill="#555555" d="M327.369,233.021h3.386v5.342h-0.901v-4.605h-2.484V233.021z M330.205,231.922
			c-0.213,0-0.387-0.062-0.522-0.187s-0.203-0.293-0.203-0.506c0-0.212,0.067-0.383,0.203-0.511c0.136-0.129,0.31-0.192,0.522-0.192
			c0.205,0,0.377,0.063,0.517,0.192c0.139,0.128,0.209,0.299,0.209,0.511c0,0.213-0.07,0.381-0.209,0.506
			C330.582,231.86,330.41,231.922,330.205,231.922z"/>
		<path fill="#555555" d="M332.679,230.537h0.901v2.133l-0.022,1.033c0.257-0.249,0.544-0.447,0.863-0.594
			c0.318-0.146,0.636-0.22,0.95-0.22c0.359,0,0.678,0.063,0.957,0.192c0.278,0.128,0.511,0.312,0.697,0.549
			c0.188,0.238,0.328,0.524,0.424,0.857c0.095,0.334,0.143,0.706,0.143,1.116c0,0.454-0.065,0.861-0.198,1.22
			c-0.132,0.359-0.31,0.663-0.532,0.912c-0.224,0.25-0.482,0.438-0.775,0.566s-0.598,0.192-0.912,0.192
			c-0.257,0-0.533-0.064-0.83-0.192s-0.573-0.306-0.83-0.533h-0.033l-0.076,0.594h-0.726V230.537z M333.58,237.11
			c0.256,0.228,0.515,0.389,0.774,0.483c0.261,0.096,0.485,0.143,0.676,0.143c0.235,0,0.451-0.049,0.649-0.148
			c0.197-0.099,0.369-0.237,0.517-0.417c0.146-0.18,0.26-0.401,0.341-0.665c0.08-0.264,0.12-0.561,0.12-0.891
			c0-0.293-0.029-0.561-0.088-0.803c-0.059-0.241-0.148-0.448-0.269-0.621c-0.121-0.172-0.277-0.306-0.468-0.4
			c-0.19-0.096-0.418-0.144-0.682-0.144c-0.234,0-0.485,0.064-0.753,0.192c-0.268,0.129-0.54,0.332-0.818,0.61V237.11z"/>
		<path fill="#555555" d="M338.536,233.021h0.748l0.077,1.264h0.032c0.278-0.433,0.621-0.772,1.028-1.022
			c0.406-0.249,0.858-0.373,1.357-0.373c0.197,0,0.379,0.017,0.544,0.049c0.165,0.033,0.331,0.09,0.5,0.171l-0.187,0.78
			c-0.191-0.066-0.352-0.113-0.484-0.143c-0.132-0.029-0.304-0.044-0.517-0.044c-0.402,0-0.789,0.115-1.159,0.346
			c-0.37,0.231-0.717,0.625-1.039,1.182v3.133h-0.901V233.021z"/>
		<path fill="#555555" d="M343.098,236.979c0-0.301,0.071-0.563,0.214-0.786c0.144-0.224,0.37-0.416,0.682-0.577
			s0.713-0.293,1.204-0.396c0.49-0.103,1.08-0.184,1.77-0.242c-0.008-0.183-0.037-0.355-0.088-0.517
			c-0.052-0.161-0.132-0.302-0.242-0.423s-0.255-0.218-0.435-0.291s-0.397-0.11-0.653-0.11c-0.352,0-0.689,0.068-1.012,0.203
			c-0.322,0.136-0.608,0.28-0.857,0.435l-0.352-0.615c0.132-0.088,0.287-0.178,0.467-0.27s0.37-0.174,0.572-0.247
			c0.201-0.073,0.416-0.134,0.643-0.182c0.228-0.048,0.458-0.071,0.692-0.071c0.733,0,1.277,0.199,1.633,0.599
			s0.533,0.933,0.533,1.6v3.275h-0.736l-0.077-0.726h-0.033c-0.301,0.234-0.632,0.437-0.995,0.604
			c-0.362,0.169-0.734,0.253-1.115,0.253c-0.249,0-0.483-0.035-0.703-0.104c-0.221-0.069-0.413-0.168-0.577-0.297
			c-0.165-0.128-0.296-0.285-0.391-0.473C343.145,237.435,343.098,237.22,343.098,236.979z M343.977,236.912
			c0,0.154,0.033,0.284,0.099,0.391c0.066,0.106,0.152,0.194,0.259,0.264s0.23,0.121,0.374,0.154
			c0.143,0.032,0.291,0.049,0.445,0.049c0.308,0,0.609-0.067,0.906-0.203s0.6-0.331,0.907-0.588v-1.407
			c-0.572,0.044-1.05,0.106-1.435,0.187c-0.385,0.081-0.692,0.178-0.924,0.292c-0.23,0.113-0.394,0.241-0.489,0.385
			C344.024,236.577,343.977,236.736,343.977,236.912z"/>
		<path fill="#555555" d="M349.088,233.021h0.748l0.077,1.264h0.032c0.278-0.433,0.621-0.772,1.028-1.022
			c0.406-0.249,0.858-0.373,1.357-0.373c0.197,0,0.379,0.017,0.544,0.049c0.165,0.033,0.331,0.09,0.5,0.171l-0.187,0.78
			c-0.191-0.066-0.352-0.113-0.484-0.143c-0.132-0.029-0.304-0.044-0.517-0.044c-0.402,0-0.789,0.115-1.159,0.346
			c-0.37,0.231-0.717,0.625-1.039,1.182v3.133h-0.901V233.021z"/>
		<path fill="#555555" d="M353.918,239.892c0.085,0.014,0.167,0.021,0.248,0.021c0.373,0,0.678-0.108,0.912-0.324
			s0.418-0.489,0.55-0.819l0.165-0.396l-2.495-5.353h0.912l1.308,2.957c0.103,0.234,0.211,0.487,0.324,0.758
			c0.113,0.271,0.226,0.535,0.336,0.792h0.044c0.095-0.257,0.192-0.519,0.291-0.786s0.192-0.522,0.28-0.764l1.165-2.957h0.857
			l-2.353,5.781c-0.103,0.264-0.22,0.51-0.352,0.736c-0.132,0.228-0.29,0.424-0.473,0.589c-0.184,0.164-0.394,0.295-0.632,0.39
			c-0.238,0.096-0.508,0.143-0.809,0.143c-0.264,0-0.498-0.036-0.703-0.109l0.187-0.715
			C353.755,239.858,353.834,239.876,353.918,239.892z"/>
		<path fill="#555555" d="M360.441,237.572c0-0.278,0.086-0.504,0.258-0.677c0.173-0.172,0.384-0.258,0.633-0.258
			s0.46,0.086,0.632,0.258c0.172,0.173,0.258,0.398,0.258,0.677s-0.086,0.502-0.258,0.67c-0.172,0.169-0.383,0.253-0.632,0.253
			s-0.46-0.084-0.633-0.253C360.527,238.074,360.441,237.851,360.441,237.572z"/>
	</g>
</g>
<g>
</g>
<g>
</g>
<g>
</g>
<g>
</g>
<g>
</g>
<g>
</g>
<g>
</g>
<g>
</g>
<g>
</g>
<g>
</g>
<g>
</g>
<g>
</g>
<g>
</g>
<g>
</g>
<g>
</g>
</svg>
